<svg width="150" height="200" viewBox="0 0 150 200" fill="none" xmlns="http://www.w3.org/2000/svg">
<path fill-rule="evenodd" clip-rule="evenodd" d="M126.487 127.014C130.43 126.232 134.157 126.363 137.423 127.225V40.3957L56.1924 66.7782V167.605C56.2356 168.158 56.2644 168.728 56.2644 169.281V169.297C56.2644 182.871 43.6733 196.347 28.1322 199.391C12.6055 202.418 0 193.873 0 180.283C0 166.709 12.6055 153.233 28.1322 150.206C33.9745 149.067 39.4139 149.571 43.9179 151.362V27.2451H44.5942L149.712 0V139.839C149.899 140.864 150 141.906 150 142.947C150 142.947 150 142.947 150 142.964C150 154.308 139.467 165.57 126.501 168.093C113.522 170.632 103.003 163.487 103.003 152.143C102.988 140.799 113.507 129.536 126.487 127.014Z" fill="#474F7A"/>
</svg>
