<svg width="50" height="50" viewBox="0 0 50 50" fill="none" xmlns="http://www.w3.org/2000/svg">
<path fill-rule="evenodd" clip-rule="evenodd" d="M43.9519 40.9975L49.1936 46.5382V49.1431H46.7152V47.1831H44.656V45.0618H42.6903L42.1206 43.1315C41.1713 43.7867 40.0563 44.1324 38.9178 44.1242C37.8547 44.0843 36.8263 43.7191 35.9609 43.0741C35.0954 42.4292 34.4311 41.5331 34.0508 40.4974C33.6704 39.4617 33.5908 38.3322 33.8218 37.2496C34.0528 36.1671 34.5843 35.1793 35.35 34.4094C36.1157 33.6395 37.0818 33.1215 38.1279 32.9199C39.174 32.7184 40.2539 32.8421 41.233 33.2758C42.2121 33.7095 43.0472 34.434 43.6341 35.3589C44.2211 36.2839 44.534 37.3684 44.5339 38.4774C44.5357 39.364 44.3303 40.2376 43.9357 41.0229L43.9519 40.9975ZM38.6614 26.3565C40.48 26.3558 42.2721 26.8112 43.8863 27.6844C45.5005 28.5576 46.8895 29.8229 47.9359 31.3735C48.9823 32.9241 49.6554 34.7144 49.8984 36.5932C50.1414 38.4721 49.9471 40.3843 49.332 42.1684L47.4803 40.2126C47.9142 38.1383 47.6631 35.9719 46.7677 34.065C45.8723 32.1581 44.3851 30.6226 42.5474 29.7074C40.7097 28.7923 38.6294 28.5513 36.6438 29.0235C34.6582 29.4957 32.8839 30.6534 31.6088 32.3088L31.5681 32.364L31.4704 32.4955L31.4216 32.5676L31.3646 32.6482L31.3117 32.7246L31.2588 32.8052L31.2181 32.8646V32.8858L31.1652 32.9664L31.1163 33.047L31.0716 33.1191L31.0227 33.204V33.2379L30.9943 33.2846L30.9454 33.3694L30.9088 33.4331L30.86 33.5179L30.8152 33.6028L30.7786 33.6791L30.7338 33.764V33.8064L30.7094 33.8531L30.6687 33.9379L30.6361 34.0101L30.5954 34.0991L30.5588 34.184L30.4001 34.3664L30.3635 34.4598V34.5022V34.5489L30.3268 34.6379L30.2983 34.7143L30.2617 34.8034L30.2292 34.8967L30.2007 34.9731L30.1722 35.0664V35.1131L30.1152 35.2149L30.0704 35.3592V35.3889L30.042 35.4822L30.0175 35.5798V35.6519L29.9931 35.7495V35.8004V35.8428L29.9524 36.0125V36.0634L29.9117 36.2543V36.2798V36.3519V36.4495V36.5089V36.5513L29.8873 36.7125V36.7507V36.8483V36.9501V36.9756V37.0519V37.1495V37.2513V37.4295V37.5313V37.6332V37.6883V37.841V38.3926V38.6768V38.855V38.8805V39.1096V39.2284V39.3344L29.9158 39.5296V39.572V39.6865V39.7884L29.9565 39.992V40.0217L29.9809 40.1362V40.2296V40.255L30.0094 40.3696V40.4587V40.4841L30.042 40.5944L30.0704 40.709L30.103 40.8193V40.8405L30.1315 40.9338L30.164 41.0442L30.1925 41.1248V41.1545L30.2292 41.2648L30.2576 41.3411V41.3751L30.2943 41.4811L30.335 41.5914L30.3797 41.6975L30.4082 41.7696V41.8036L30.453 41.9139L30.4978 42.0157L30.5466 42.1217L30.5751 42.1854V42.2278L30.6239 42.3296C30.7053 42.4993 30.7948 42.6648 30.8844 42.8302L30.9413 42.9321L30.9983 43.0297L31.0553 43.1272L31.1163 43.2206L31.1774 43.3181L31.2059 43.3648L31.2384 43.4115C31.4053 43.6618 31.5803 43.9036 31.7675 44.1369L31.8407 44.226L31.9099 44.3109C32.0035 44.4254 32.1053 44.5315 32.2029 44.6418L32.2803 44.7224L32.3047 44.7521L32.3576 44.803C34.0245 46.5623 36.2896 47.5654 38.6614 47.5946C39.3043 47.5932 39.9454 47.5221 40.5741 47.3825C40.8939 47.6917 41.2724 47.9273 41.6852 48.074C41.8158 48.5485 42.0513 48.9844 42.3729 49.3468C40.362 50.0748 38.1949 50.1971 36.1204 49.6996C34.0458 49.202 32.1479 48.1049 30.6443 46.534L30.51 46.3855C30.0785 45.9214 29.6851 45.4204 29.3338 44.8879H0C0 31.3967 11.6757 36.2756 16.4047 29.5003C16.95 28.6517 16.8116 28.7281 16.193 28.0493C15.957 27.7923 15.7381 27.5187 15.5378 27.2305C14.2762 25.4274 13.1449 23.3868 12.0054 21.4904C11.1915 20.2176 10.7479 19.0934 10.7479 18.1897C10.7479 17.286 11.2403 16.0981 12.2211 15.8436C12.0819 13.8671 12.0534 11.8839 12.1356 9.90405C12.1789 9.40047 12.2661 8.90203 12.3961 8.41493C12.9933 6.36972 14.2988 4.62917 16.0587 3.53179C16.6905 3.12177 17.3667 2.79137 18.0732 2.54752C19.3307 2.05115 18.7243 0.0614033 20.108 0.00200794C23.3637 -0.087085 28.6908 2.80631 30.7704 5.15667C32.0975 6.68203 32.8519 8.65553 32.8948 10.7144L32.7645 16.0684C33.0476 16.1411 33.3063 16.2929 33.5129 16.5075C33.7194 16.722 33.8659 16.9912 33.9366 17.286C34.1075 18.0115 33.9366 18.983 33.3302 20.4043C33.3302 20.451 33.2854 20.451 33.2854 20.4976C31.9506 22.7971 30.5629 25.4571 29.0246 27.5784C28.2513 28.6517 27.6165 28.4608 28.2757 29.4918C28.6709 30.054 29.1316 30.5627 29.6472 31.0063C29.9548 30.5833 30.2907 30.1835 30.6524 29.81L30.7948 29.6742C32.9029 27.5431 35.725 26.3529 38.6614 26.3565ZM38.108 36.6531C38.306 36.6531 38.4995 36.7144 38.6642 36.829C38.8288 36.9437 38.9571 37.1067 39.0329 37.2974C39.1086 37.4881 39.1285 37.698 39.0898 37.9004C39.0512 38.1029 38.9559 38.2888 38.8159 38.4348C38.6758 38.5807 38.4975 38.6801 38.3033 38.7204C38.1091 38.7607 37.9078 38.74 37.7248 38.661C37.5419 38.582 37.3856 38.4483 37.2755 38.2766C37.1655 38.105 37.1068 37.9032 37.1068 37.6968C37.1079 37.4203 37.2137 37.1555 37.4012 36.9601C37.5887 36.7646 37.8428 36.6543 38.108 36.6531Z" fill="#F3F3F3"/>
</svg>
