<svg width="936" height="516" viewBox="0 0 936 516" fill="none" xmlns="http://www.w3.org/2000/svg">
<path d="M8 20.9143V495.086" stroke="#81689D" stroke-opacity="0.4" stroke-width="15" stroke-linecap="round"/>
<path d="M28 104.843V411.157" stroke="#FFD0EC" stroke-opacity="0.4" stroke-width="15" stroke-linecap="round"/>
<path d="M48 126.257V389.757" stroke="#FFD0EC" stroke-opacity="0.4" stroke-width="15" stroke-linecap="round"/>
<path d="M68 62.3143V453.686" stroke="#FFD0EC" stroke-opacity="0.4" stroke-width="15" stroke-linecap="round"/>
<path d="M88 203.443V312.557" stroke="#81689D" stroke-opacity="0.4" stroke-width="15" stroke-linecap="round"/>
<path d="M108 25.3143V490.686" stroke="#81689D" stroke-opacity="0.4" stroke-width="15" stroke-linecap="round"/>
<path d="M128 111.729V404.271" stroke="#81689D" stroke-opacity="0.4" stroke-width="15" stroke-linecap="round"/>
<path d="M148 189.471V326.529" stroke="#FFD0EC" stroke-opacity="0.4" stroke-width="15" stroke-linecap="round"/>
<path d="M168 40.7714V475.229" stroke="#81689D" stroke-opacity="0.4" stroke-width="15" stroke-linecap="round"/>
<path d="M188 152.729V363.271" stroke="#81689D" stroke-opacity="0.4" stroke-width="15" stroke-linecap="round"/>
<path d="M208 92.6857V423.314" stroke="#FFD0EC" stroke-opacity="0.4" stroke-width="15" stroke-linecap="round"/>
<path d="M228 197.386V318.614" stroke="#81689D" stroke-opacity="0.4" stroke-width="15" stroke-linecap="round"/>
<path d="M248 194.443V321.557" stroke="#81689D" stroke-opacity="0.4" stroke-width="15" stroke-linecap="round"/>
<path d="M268 160.186V355.814" stroke="#81689D" stroke-opacity="0.4" stroke-width="15" stroke-linecap="round"/>
<path d="M288 61.9286V454.071" stroke="#FFD0EC" stroke-opacity="0.4" stroke-width="15" stroke-linecap="round"/>
<path d="M308 89.3571V426.643" stroke="#FFD0EC" stroke-opacity="0.4" stroke-width="15" stroke-linecap="round"/>
<path d="M328 22.2286V493.771" stroke="#81689D" stroke-opacity="0.4" stroke-width="15" stroke-linecap="round"/>
<path d="M348 144.614V371.4" stroke="#FFD0EC" stroke-opacity="0.4" stroke-width="15" stroke-linecap="round"/>
<path d="M368 134.871V381.129" stroke="#FFD0EC" stroke-opacity="0.4" stroke-width="15" stroke-linecap="round"/>
<path d="M388 165.286V350.714" stroke="#81689D" stroke-opacity="0.4" stroke-width="15" stroke-linecap="round"/>
<path d="M408 148.4V367.6" stroke="#FFD0EC" stroke-opacity="0.4" stroke-width="15" stroke-linecap="round"/>
<path d="M428 149.386V366.6" stroke="#FFD0EC" stroke-opacity="0.4" stroke-width="15" stroke-linecap="round"/>
<path d="M448 162.757V353.243" stroke="#FFD0EC" stroke-opacity="0.4" stroke-width="15" stroke-linecap="round"/>
<path d="M468 61.5428V454.457" stroke="#FFD0EC" stroke-opacity="0.4" stroke-width="15" stroke-linecap="round"/>
<path d="M488 168.7V347.3" stroke="#FFD0EC" stroke-opacity="0.4" stroke-width="15" stroke-linecap="round"/>
<path d="M508 88.2429V427.757" stroke="#FFD0EC" stroke-opacity="0.4" stroke-width="15" stroke-linecap="round"/>
<path d="M528 132.4V383.6" stroke="#81689D" stroke-opacity="0.4" stroke-width="15" stroke-linecap="round"/>
<path d="M548 105.514V410.486" stroke="#FFD0EC" stroke-opacity="0.4" stroke-width="15" stroke-linecap="round"/>
<path d="M568 41.9428V474.057" stroke="#81689D" stroke-opacity="0.4" stroke-width="15" stroke-linecap="round"/>
<path d="M588 197.2V318.8" stroke="#81689D" stroke-opacity="0.4" stroke-width="15" stroke-linecap="round"/>
<path d="M608 177.229V338.771" stroke="#81689D" stroke-opacity="0.4" stroke-width="15" stroke-linecap="round"/>
<path d="M628 26.3143V489.686" stroke="#FFD0EC" stroke-opacity="0.4" stroke-width="15" stroke-linecap="round"/>
<path d="M648 60.5286V455.471" stroke="#81689D" stroke-opacity="0.4" stroke-width="15" stroke-linecap="round"/>
<path d="M668 122.029V393.971" stroke="#81689D" stroke-opacity="0.4" stroke-width="15" stroke-linecap="round"/>
<path d="M688 83.9143V432.086" stroke="#81689D" stroke-opacity="0.4" stroke-width="15" stroke-linecap="round"/>
<path d="M708 195.714V320.286" stroke="#FFD0EC" stroke-opacity="0.4" stroke-width="15" stroke-linecap="round"/>
<path d="M728 138.2V377.8" stroke="#FFD0EC" stroke-opacity="0.4" stroke-width="15" stroke-linecap="round"/>
<path d="M748 8.39999V507.6" stroke="#81689D" stroke-opacity="0.4" stroke-width="15" stroke-linecap="round"/>
<path d="M768 18.1286V497.871" stroke="#81689D" stroke-opacity="0.4" stroke-width="15" stroke-linecap="round"/>
<path d="M788 231.329V284.671" stroke="#81689D" stroke-opacity="0.4" stroke-width="15" stroke-linecap="round"/>
<path d="M808 188.229V327.786" stroke="#81689D" stroke-opacity="0.4" stroke-width="15" stroke-linecap="round"/>
<path d="M828 143.271V372.729" stroke="#FFD0EC" stroke-opacity="0.4" stroke-width="15" stroke-linecap="round"/>
<path d="M848 186.157V329.843" stroke="#FFD0EC" stroke-opacity="0.4" stroke-width="15" stroke-linecap="round"/>
<path d="M868 130.986V385" stroke="#FFD0EC" stroke-opacity="0.4" stroke-width="15" stroke-linecap="round"/>
<path d="M888 185.5V330.5" stroke="#81689D" stroke-opacity="0.4" stroke-width="15" stroke-linecap="round"/>
<path d="M908 123.6V392.4" stroke="#81689D" stroke-opacity="0.4" stroke-width="15" stroke-linecap="round"/>
<path d="M928 14.3286V501.671" stroke="#81689D" stroke-opacity="0.4" stroke-width="15" stroke-linecap="round"/>
</svg>
