<svg width="83" height="83" viewBox="0 0 83 83" fill="none" xmlns="http://www.w3.org/2000/svg">
<g filter="url(#filter0_d_8_85)">
<path d="M27.1628 2.84424C31.5818 1.01318 36.428 0 41.5 0C51.8516 0 61.2327 4.19922 68.0137 10.9863C71.4683 14.4409 74.2515 18.573 76.1558 23.1628C77.9868 27.5818 79 32.428 79 37.5C79 47.8516 74.8008 57.2327 68.0137 64.0137C64.5591 67.4683 60.427 70.2515 55.8372 72.1558C51.4182 73.9868 46.572 75 41.5 75C36.428 75 31.5818 73.9868 27.1628 72.1558C22.5669 70.2515 18.4409 67.4683 14.9863 64.0137C11.5317 60.5591 8.74243 56.4331 6.84424 51.8372C5.01318 47.4182 4 42.572 4 37.5C4 32.428 5.01318 27.5818 6.84424 23.1628C8.74243 18.5669 11.5317 14.4409 14.9863 10.9863C18.4348 7.53174 22.5669 4.74243 27.1628 2.84424ZM34.5176 28.7659C33.0039 27.2278 33.0222 24.7498 34.5664 23.2422C36.1045 21.7285 38.5825 21.7468 40.0901 23.291L51.4854 34.8694C52.9807 36.3953 52.9807 38.8306 51.4854 40.3503L40.3098 51.709C38.7961 53.2471 36.3242 53.2654 34.7861 51.7578C33.248 50.2441 33.2297 47.7722 34.7373 46.2341L43.2212 37.6099L34.5176 28.7659ZM30.1597 10.1013C26.5403 11.6028 23.2749 13.8062 20.5405 16.5405C17.8062 19.2749 15.6028 22.5403 14.1013 26.1597C12.6548 29.6448 11.8613 33.4778 11.8613 37.5C11.8613 41.5222 12.6609 45.3491 14.1013 48.8403C15.6028 52.4597 17.8062 55.7251 20.5405 58.4595C23.2749 61.1938 26.5403 63.3972 30.1597 64.8987C33.6509 66.3452 37.4778 67.1387 41.5 67.1387C45.5222 67.1387 49.3491 66.3391 52.8403 64.8987C56.4597 63.3972 59.7251 61.1938 62.4595 58.4595C65.1938 55.7251 67.3972 52.4658 68.8987 48.8403C70.3452 45.3552 71.1387 41.5222 71.1387 37.5C71.1387 33.4778 70.3391 29.6509 68.8987 26.1597C67.3972 22.5403 65.1938 19.2749 62.4595 16.5405C59.7251 13.8062 56.4597 11.6028 52.8403 10.1013C49.3552 8.65479 45.5222 7.86133 41.5 7.86133C37.4778 7.86133 33.6509 8.66089 30.1597 10.1013Z" fill="#639CD9"/>
</g>
<defs>
<filter id="filter0_d_8_85" x="0" y="0" width="83" height="83" filterUnits="userSpaceOnUse" color-interpolation-filters="sRGB">
<feFlood flood-opacity="0" result="BackgroundImageFix"/>
<feColorMatrix in="SourceAlpha" type="matrix" values="0 0 0 0 0 0 0 0 0 0 0 0 0 0 0 0 0 0 127 0" result="hardAlpha"/>
<feOffset dy="4"/>
<feGaussianBlur stdDeviation="2"/>
<feComposite in2="hardAlpha" operator="out"/>
<feColorMatrix type="matrix" values="0 0 0 0 0 0 0 0 0 0 0 0 0 0 0 0 0 0 0.25 0"/>
<feBlend mode="normal" in2="BackgroundImageFix" result="effect1_dropShadow_8_85"/>
<feBlend mode="normal" in="SourceGraphic" in2="effect1_dropShadow_8_85" result="shape"/>
</filter>
</defs>
</svg>
