<svg width="43" height="43" viewBox="0 0 43 43" fill="none" xmlns="http://www.w3.org/2000/svg">
<g filter="url(#filter0_d_8_124)">
<path d="M39 17.5128C39.0022 15.2136 38.5514 12.9364 37.6733 10.8116C36.7952 8.68676 35.5069 6.7559 33.8823 5.12942C32.2577 3.50295 30.3285 2.21275 28.2051 1.33261C26.0817 0.452466 23.8056 -0.000364247 21.5071 1.13832e-05C19.2078 -0.00261247 16.9305 0.44839 14.8057 1.32721C12.6808 2.20602 10.75 3.4954 9.12389 5.12153C7.49775 6.74766 6.20817 8.67863 5.32895 10.8039C4.44973 12.9292 3.99813 15.2071 4.00001 17.5071C3.99888 19.8051 4.45062 22.0808 5.32939 24.204C6.20816 26.3272 7.49673 28.2563 9.12139 29.881C10.746 31.5056 12.6749 32.794 14.7977 33.6724C16.9206 34.5507 19.1956 35.0019 21.4929 35C23.7902 35.0015 26.0653 34.5499 28.188 33.6709C30.3107 32.792 32.2393 31.503 33.8635 29.8778C35.4877 28.2525 36.7757 26.3228 37.6536 24.1992C38.5316 22.0755 38.9823 19.7995 38.98 17.5014L39 17.5128ZM21.5043 25.9344L13.6638 17.2335H18.6724V11.1717H24.3362V17.2335H29.3561L21.5043 25.9344ZM35.2593 17.5157C35.254 21.1631 33.8036 24.6596 31.2259 27.2393C28.6481 29.8189 25.1533 31.2712 21.5071 31.278C17.8592 31.275 14.3615 29.8246 11.7812 27.2451C9.20092 24.6656 7.74887 21.1676 7.74359 17.5185C7.74135 15.7105 8.0954 13.9199 8.7855 12.2488C9.47561 10.5778 10.4882 9.05931 11.7655 7.78008C13.0427 6.50085 14.5595 5.48601 16.2291 4.79361C17.8987 4.10121 19.6883 3.74482 21.4957 3.74482C25.1438 3.74709 28.6417 5.19834 31.2205 7.77956C33.7993 10.3608 35.2479 13.8607 35.2479 17.51L35.2593 17.5157Z" fill="#639CD9"/>
</g>
<defs>
<filter id="filter0_d_8_124" x="0" y="0" width="43" height="43" filterUnits="userSpaceOnUse" color-interpolation-filters="sRGB">
<feFlood flood-opacity="0" result="BackgroundImageFix"/>
<feColorMatrix in="SourceAlpha" type="matrix" values="0 0 0 0 0 0 0 0 0 0 0 0 0 0 0 0 0 0 127 0" result="hardAlpha"/>
<feOffset dy="4"/>
<feGaussianBlur stdDeviation="2"/>
<feComposite in2="hardAlpha" operator="out"/>
<feColorMatrix type="matrix" values="0 0 0 0 0 0 0 0 0 0 0 0 0 0 0 0 0 0 0.25 0"/>
<feBlend mode="normal" in2="BackgroundImageFix" result="effect1_dropShadow_8_124"/>
<feBlend mode="normal" in="SourceGraphic" in2="effect1_dropShadow_8_124" result="shape"/>
</filter>
</defs>
</svg>
