<svg width="35" height="35" viewBox="0 0 35 35" fill="none" xmlns="http://www.w3.org/2000/svg">
<path d="M35 17.5128C35.0022 15.2136 34.5514 12.9364 33.6733 10.8116C32.7952 8.68676 31.5069 6.7559 29.8823 5.12942C28.2577 3.50295 26.3285 2.21275 24.2051 1.33261C22.0817 0.452466 19.8056 -0.000364247 17.5071 1.13832e-05C15.2078 -0.00261247 12.9305 0.44839 10.8057 1.32721C8.68078 2.20602 6.75002 3.4954 5.12389 5.12153C3.49775 6.74766 2.20817 8.67863 1.32895 10.8039C0.449728 12.9292 -0.00186871 15.2071 5.81178e-06 17.5071C-0.0011183 19.8051 0.450623 22.0808 1.32939 24.204C2.20816 26.3272 3.49673 28.2563 5.12139 29.881C6.74605 31.5056 8.67494 32.794 10.7977 33.6724C12.9206 34.5507 15.1956 35.0019 17.4929 35C19.7902 35.0015 22.0653 34.5499 24.188 33.6709C26.3107 32.792 28.2393 31.503 29.8635 29.8778C31.4877 28.2525 32.7757 26.3228 33.6536 24.1992C34.5316 22.0755 34.9823 19.7995 34.98 17.5014L35 17.5128ZM17.5043 25.9344L9.66382 17.2335H14.6724V11.1717H20.3362V17.2335H25.3561L17.5043 25.9344ZM31.2593 17.5157C31.254 21.1631 29.8036 24.6596 27.2259 27.2393C24.6481 29.8189 21.1533 31.2712 17.5071 31.278C13.8592 31.275 10.3615 29.8246 7.78119 27.2451C5.20092 24.6656 3.74887 21.1676 3.74359 17.5185C3.74135 15.7105 4.0954 13.9199 4.7855 12.2488C5.47561 10.5778 6.48822 9.05931 7.76545 7.78008C9.04268 6.50085 10.5595 5.48601 12.2291 4.79361C13.8987 4.10121 15.6883 3.74482 17.4957 3.74482C21.1438 3.74709 24.6417 5.19834 27.2205 7.77956C29.7993 10.3608 31.2479 13.8607 31.2479 17.51L31.2593 17.5157Z" fill="#639CD9"/>
</svg>
