<svg width="40" height="40" viewBox="0 0 40 40" fill="none" xmlns="http://www.w3.org/2000/svg">
<path d="M0.907635 0H39.0902C39.5928 0 40 0.467108 40 1.04362C40 1.361 39.8766 1.64515 39.6816 1.83669L24.4408 19.2313V34.159C24.4408 34.5723 24.2315 34.9293 23.9278 35.0984L16.7383 39.8599C16.3044 40.1478 15.7491 39.9779 15.4974 39.4805C15.4144 39.3158 15.3751 39.1362 15.3754 38.9585H15.3734V19.228L0.264082 1.7777C-0.0894331 1.36996 -0.0878055 0.71093 0.267663 0.305804C0.444746 0.103802 0.67619 0.0029871 0.907635 0.0029871V0ZM36.889 2.08761H3.09025L16.8786 18.0122C17.0713 18.2034 17.1931 18.4864 17.1931 18.8016V37.1532L22.6208 33.5593V18.8016H22.6234C22.6234 18.5342 22.7126 18.2669 22.891 18.0634L36.889 2.08761Z" fill="#F3F3F3"/>
</svg>
