<svg width="43" height="43" viewBox="0 0 43 43" fill="none" xmlns="http://www.w3.org/2000/svg">
<g filter="url(#filter0_d_8_84)">
<path d="M21.5 0C26.3289 0 30.7032 1.95986 33.8703 5.12559C37.0401 8.29678 39 12.6711 39 17.5C39 22.3323 37.0401 26.7073 33.8744 29.8737C30.7073 33.0401 26.3323 35 21.5 35C16.6738 35 12.2988 33.0401 9.13037 29.8737L9.12422 29.8669C5.9585 26.6998 4 22.3255 4 17.5C4 12.6677 5.95986 8.29268 9.12627 5.12559C12.2927 1.95986 16.6677 0 21.5 0ZM22.4748 13.4996L21.4433 14.5858L20.3967 13.5604C19.4157 12.5938 18.6733 11.8651 17.2351 11.8439L17.0491 11.846C16.25 11.8747 15.5151 12.1666 14.9833 12.6622C14.4706 13.1407 14.1425 13.8257 14.1295 14.659L14.1315 14.8367C14.2231 17.3886 16.7955 19.734 18.9263 21.6761C19.3474 22.0603 19.7534 22.4308 20.1629 22.8245L21.4077 24.0229L23.075 22.3692L24.1763 21.3021C24.8544 20.6534 25.6057 19.9336 26.2981 19.2165C26.7931 18.7059 27.26 18.1918 27.6551 17.703C28.0311 17.2368 28.3387 16.7986 28.528 16.4199C28.8199 15.8361 28.9122 15.2517 28.8507 14.7089C28.7892 14.1729 28.5766 13.6685 28.258 13.2378C27.9285 12.7928 27.4883 12.4236 26.9852 12.1721C26.4116 11.885 25.7513 11.7496 25.0786 11.8269C23.9295 11.9574 23.2732 12.6533 22.4748 13.4996ZM21.3906 11.6751C22.3087 10.7276 23.1967 9.98252 24.8469 9.79453C25.9242 9.67148 26.9797 9.8875 27.8984 10.3482C28.6894 10.744 29.3818 11.3237 29.8979 12.0217C30.4271 12.736 30.7805 13.5769 30.8823 14.4765C30.9876 15.3904 30.8358 16.3673 30.3519 17.3332C30.0873 17.8623 29.7018 18.4201 29.2472 18.9841C28.811 19.5234 28.3031 20.0826 27.7706 20.6329C27.0439 21.3855 26.277 22.1204 25.5886 22.7787L24.5153 23.8178L21.4289 26.8796L18.7472 24.297C18.4081 23.9709 17.9856 23.586 17.5502 23.1896C15.1323 20.9843 12.2141 18.3251 12.0917 14.9092L12.089 14.6419C12.1067 13.2036 12.6857 12.0101 13.5915 11.1658C14.4795 10.3373 15.684 9.85264 16.9767 9.80615L17.2528 9.80342C19.2633 9.82939 20.2709 10.5998 21.3906 11.6751ZM32.3794 6.62061C29.5972 3.83906 25.7499 2.11777 21.5 2.11777C17.2521 2.11777 13.4056 3.84043 10.6233 6.62266C7.83906 9.40625 6.11777 13.2521 6.11777 17.5C6.11777 21.7506 7.83838 25.5972 10.6192 28.3767C13.4028 31.1616 17.2494 32.8822 21.5 32.8822C25.7479 32.8822 29.5938 31.1609 32.3773 28.3767C35.1596 25.5944 36.8822 21.7479 36.8822 17.5C36.8822 13.2501 35.1609 9.40283 32.3794 6.62061Z" fill="#639CD9"/>
</g>
<defs>
<filter id="filter0_d_8_84" x="0" y="0" width="43" height="43" filterUnits="userSpaceOnUse" color-interpolation-filters="sRGB">
<feFlood flood-opacity="0" result="BackgroundImageFix"/>
<feColorMatrix in="SourceAlpha" type="matrix" values="0 0 0 0 0 0 0 0 0 0 0 0 0 0 0 0 0 0 127 0" result="hardAlpha"/>
<feOffset dy="4"/>
<feGaussianBlur stdDeviation="2"/>
<feComposite in2="hardAlpha" operator="out"/>
<feColorMatrix type="matrix" values="0 0 0 0 0 0 0 0 0 0 0 0 0 0 0 0 0 0 0.25 0"/>
<feBlend mode="normal" in2="BackgroundImageFix" result="effect1_dropShadow_8_84"/>
<feBlend mode="normal" in="SourceGraphic" in2="effect1_dropShadow_8_84" result="shape"/>
</filter>
</defs>
</svg>
