<svg width="35" height="35" viewBox="0 0 35 35" fill="none" xmlns="http://www.w3.org/2000/svg">
<path d="M17.5 0C22.3289 0 26.7032 1.95986 29.8703 5.12559C33.0401 8.29678 35 12.6711 35 17.5C35 22.3323 33.0401 26.7073 29.8744 29.8737C26.7073 33.0401 22.3323 35 17.5 35C12.6738 35 8.29883 33.0401 5.13037 29.8737L5.12422 29.8669C1.9585 26.6998 0 22.3255 0 17.5C0 12.6677 1.95986 8.29268 5.12627 5.12559C8.29268 1.95986 12.6677 0 17.5 0ZM18.4748 13.4996L17.4433 14.5858L16.3967 13.5604C15.4157 12.5938 14.6733 11.8651 13.2351 11.8439L13.0491 11.846C12.25 11.8747 11.5151 12.1666 10.9833 12.6622C10.4706 13.1407 10.1425 13.8257 10.1295 14.659L10.1315 14.8367C10.2231 17.3886 12.7955 19.734 14.9263 21.6761C15.3474 22.0603 15.7534 22.4308 16.1629 22.8245L17.4077 24.0229L19.075 22.3692L20.1763 21.3021C20.8544 20.6534 21.6057 19.9336 22.2981 19.2165C22.7931 18.7059 23.26 18.1918 23.6551 17.703C24.0311 17.2368 24.3387 16.7986 24.528 16.4199C24.8199 15.8361 24.9122 15.2517 24.8507 14.7089C24.7892 14.1729 24.5766 13.6685 24.258 13.2378C23.9285 12.7928 23.4883 12.4236 22.9852 12.1721C22.4116 11.885 21.7513 11.7496 21.0786 11.8269C19.9295 11.9574 19.2732 12.6533 18.4748 13.4996ZM17.3906 11.6751C18.3087 10.7276 19.1967 9.98252 20.8469 9.79453C21.9242 9.67148 22.9797 9.8875 23.8984 10.3482C24.6894 10.744 25.3818 11.3237 25.8979 12.0217C26.4271 12.736 26.7805 13.5769 26.8823 14.4765C26.9876 15.3904 26.8358 16.3673 26.3519 17.3332C26.0873 17.8623 25.7018 18.4201 25.2472 18.9841C24.811 19.5234 24.3031 20.0826 23.7706 20.6329C23.0439 21.3855 22.277 22.1204 21.5886 22.7787L20.5153 23.8178L17.4289 26.8796L14.7472 24.297C14.4081 23.9709 13.9856 23.586 13.5502 23.1896C11.1323 20.9843 8.21406 18.3251 8.0917 14.9092L8.08897 14.6419C8.10674 13.2036 8.68574 12.0101 9.5915 11.1658C10.4795 10.3373 11.684 9.85264 12.9767 9.80615L13.2528 9.80342C15.2633 9.82939 16.2709 10.5998 17.3906 11.6751ZM28.3794 6.62061C25.5972 3.83906 21.7499 2.11777 17.5 2.11777C13.2521 2.11777 9.40557 3.84043 6.62334 6.62266C3.83906 9.40625 2.11777 13.2521 2.11777 17.5C2.11777 21.7506 3.83838 25.5972 6.61924 28.3767C9.40283 31.1616 13.2494 32.8822 17.5 32.8822C21.7479 32.8822 25.5938 31.1609 28.3773 28.3767C31.1596 25.5944 32.8822 21.7479 32.8822 17.5C32.8822 13.2501 31.1609 9.40283 28.3794 6.62061Z" fill="#639CD9"/>
</svg>
