<svg width="58" height="53" viewBox="0 0 58 53" fill="none" xmlns="http://www.w3.org/2000/svg">
<g filter="url(#filter0_d_8_130)">
<path fill-rule="evenodd" clip-rule="evenodd" d="M7.6377 0H50.3623C52.3643 0 54 1.88536 54 4.19281C54 6.50026 52.3643 8.38562 50.3623 8.38562H7.6377C5.63574 8.38562 4 6.50026 4 4.19281C4 1.88536 5.63574 0 7.6377 0ZM7.6377 36.6144H50.3623C52.3643 36.6144 54 38.4997 54 40.8072C54 43.1146 52.3643 45 50.3623 45H7.6377C5.63574 45 4 43.1146 4 40.8072C4 38.4997 5.63574 36.6144 7.6377 36.6144ZM7.6377 18.3048H50.3623C52.3643 18.3048 54 20.1902 54 22.4977C54 24.8051 52.3643 26.6905 50.3623 26.6905H7.6377C5.63574 26.6905 4 24.8051 4 22.4977C4 20.1949 5.63574 18.3048 7.6377 18.3048Z" fill="white"/>
</g>
<defs>
<filter id="filter0_d_8_130" x="0" y="0" width="58" height="53" filterUnits="userSpaceOnUse" color-interpolation-filters="sRGB">
<feFlood flood-opacity="0" result="BackgroundImageFix"/>
<feColorMatrix in="SourceAlpha" type="matrix" values="0 0 0 0 0 0 0 0 0 0 0 0 0 0 0 0 0 0 127 0" result="hardAlpha"/>
<feOffset dy="4"/>
<feGaussianBlur stdDeviation="2"/>
<feComposite in2="hardAlpha" operator="out"/>
<feColorMatrix type="matrix" values="0 0 0 0 0 0 0 0 0 0 0 0 0 0 0 0 0 0 0.25 0"/>
<feBlend mode="normal" in2="BackgroundImageFix" result="effect1_dropShadow_8_130"/>
<feBlend mode="normal" in="SourceGraphic" in2="effect1_dropShadow_8_130" result="shape"/>
</filter>
</defs>
</svg>
