<svg width="50" height="45" viewBox="0 0 50 45" fill="none" xmlns="http://www.w3.org/2000/svg">
<path fill-rule="evenodd" clip-rule="evenodd" d="M3.6377 0H46.3623C48.3643 0 50 1.88536 50 4.19281C50 6.50026 48.3643 8.38562 46.3623 8.38562H3.6377C1.63574 8.38562 0 6.50026 0 4.19281C0 1.88536 1.63574 0 3.6377 0ZM3.6377 36.6144H46.3623C48.3643 36.6144 50 38.4997 50 40.8072C50 43.1146 48.3643 45 46.3623 45H3.6377C1.63574 45 0 43.1146 0 40.8072C0 38.4997 1.63574 36.6144 3.6377 36.6144ZM3.6377 18.3048H46.3623C48.3643 18.3048 50 20.1902 50 22.4977C50 24.8051 48.3643 26.6905 46.3623 26.6905H3.6377C1.63574 26.6905 0 24.8051 0 22.4977C0 20.1949 1.63574 18.3048 3.6377 18.3048Z" fill="white"/>
</svg>
