<svg width="83" height="83" viewBox="0 0 83 83" fill="none" xmlns="http://www.w3.org/2000/svg">
<g filter="url(#filter0_d_60_7)">
<path d="M41.4997 0C31.1447 0 21.77 4.19735 14.9836 10.9838C8.19729 17.7702 4 27.1452 4 37.5003C4 47.8554 8.19729 57.2304 14.9836 64.0168C21.77 70.8026 31.1447 75 41.4997 75C51.8553 75 61.23 70.8026 68.0164 64.0168C74.8027 57.2304 79 47.8554 79 37.5003C79 27.1446 74.8027 17.7696 68.0164 10.9838C61.23 4.19735 51.8553 0 41.4997 0ZM35.4354 25.7359C34.3765 24.647 34.4003 22.9057 35.4891 21.8467C36.5779 20.7878 38.3192 20.8116 39.3788 21.9005L52.7079 35.6461L50.7365 37.5638L52.7165 35.6436C53.7772 36.7374 53.7498 38.483 52.6566 39.5437C52.6243 39.5743 52.5926 39.6042 52.5602 39.6329L39.3788 53.1105C38.3198 54.1994 36.5785 54.2232 35.4891 53.1642C34.4003 52.1059 34.3765 50.364 35.4354 49.2751L46.8975 37.5558L35.4354 25.7359ZM18.8837 14.8839C24.6715 9.096 32.6675 5.51631 41.4997 5.51631C50.3319 5.51631 58.3285 9.096 64.1157 14.8839C69.9042 20.6718 73.4844 28.668 73.4844 37.5009C73.4844 46.3332 69.9048 54.3294 64.1157 60.1173C58.3285 65.9052 50.3319 69.4855 41.4997 69.4855C32.6675 69.4855 24.6715 65.9058 18.8837 60.1173C13.0958 54.3294 9.51622 46.3326 9.51622 37.5003C9.51622 28.668 13.0958 20.6718 18.8837 14.8839Z" fill="#639CD9"/>
</g>
<defs>
<filter id="filter0_d_60_7" x="0" y="0" width="83" height="83" filterUnits="userSpaceOnUse" color-interpolation-filters="sRGB">
<feFlood flood-opacity="0" result="BackgroundImageFix"/>
<feColorMatrix in="SourceAlpha" type="matrix" values="0 0 0 0 0 0 0 0 0 0 0 0 0 0 0 0 0 0 127 0" result="hardAlpha"/>
<feOffset dy="4"/>
<feGaussianBlur stdDeviation="2"/>
<feComposite in2="hardAlpha" operator="out"/>
<feColorMatrix type="matrix" values="0 0 0 0 0 0 0 0 0 0 0 0 0 0 0 0 0 0 0.25 0"/>
<feBlend mode="normal" in2="BackgroundImageFix" result="effect1_dropShadow_60_7"/>
<feBlend mode="normal" in="SourceGraphic" in2="effect1_dropShadow_60_7" result="shape"/>
</filter>
</defs>
</svg>
