<svg width="75" height="75" viewBox="0 0 75 75" fill="none" xmlns="http://www.w3.org/2000/svg">
<path d="M37.4997 0C27.1447 0 17.77 4.19735 10.9836 10.9838C4.19729 17.7702 0 27.1452 0 37.5003C0 47.8554 4.19729 57.2304 10.9836 64.0168C17.77 70.8027 27.1447 75 37.4997 75C47.8553 75 57.23 70.8027 64.0164 64.0168C70.8027 57.2304 75 47.8554 75 37.5003C75 27.1446 70.8027 17.7696 64.0164 10.9838C57.23 4.19735 47.8553 0 37.4997 0ZM31.4354 25.7359C30.3765 24.647 30.4003 22.9057 31.4891 21.8467C32.5779 20.7878 34.3192 20.8116 35.3788 21.9005L48.7079 35.6461L46.7365 37.5638L48.7165 35.6436C49.7772 36.7374 49.7498 38.483 48.6567 39.5437C48.6243 39.5743 48.5926 39.6042 48.5602 39.6329L35.3788 53.1105C34.3198 54.1994 32.5785 54.2232 31.4891 53.1642C30.4003 52.1059 30.3765 50.364 31.4354 49.2751L42.8975 37.5558L31.4354 25.7359ZM14.8837 14.8839C20.6715 9.096 28.6675 5.51631 37.4997 5.51631C46.3319 5.51631 54.3285 9.096 60.1157 14.8839C65.9042 20.6718 69.4844 28.668 69.4844 37.5009C69.4844 46.3332 65.9048 54.3294 60.1157 60.1173C54.3285 65.9052 46.3319 69.4855 37.4997 69.4855C28.6675 69.4855 20.6715 65.9058 14.8837 60.1173C9.09585 54.3294 5.51622 46.3326 5.51622 37.5003C5.51622 28.668 9.09585 20.6718 14.8837 14.8839Z" fill="#639CD9"/>
</svg>
