<?xml version="1.0" encoding="utf-8"?><svg version="1.1" id="Layer_1" xmlns="http://www.w3.org/2000/svg" xmlns:xlink="http://www.w3.org/1999/xlink" x="0px" y="0px" viewBox="0 0 96 85.88" style="enable-background:new 0 0 96 85.88" xml:space="preserve"><g><path d="M90.21,50.93c-1.87,9.92-7.16,18.64-14.59,24.89c-7.47,6.28-17.1,10.06-27.6,10.06c-9.87,0-18.97-3.34-26.23-8.95 C14.38,71.2,8.89,63.1,6.46,53.76l5.36-1.39c2.11,8.13,6.89,15.19,13.35,20.18c6.31,4.88,14.23,7.78,22.84,7.78 c9.17,0,17.55-3.29,24.04-8.74c6.21-5.22,10.7-12.43,12.49-20.65h-5.72l8.59-10.46L96,50.93L90.21,50.93L90.21,50.93L90.21,50.93z M61.35,27.23c-0.05-0.05-0.09-0.08-0.13-0.11c-0.04-0.03-0.09-0.05-0.13-0.07l-0.01-0.01c-0.03-0.02-0.07-0.03-0.12-0.04l0,0 C60.92,27,60.87,27,60.81,27c-0.06,0-0.12,0-0.17,0.01c-0.05,0.01-0.09,0.02-0.12,0.04l-0.02,0.01c-0.03,0.02-0.07,0.04-0.11,0.06 c-0.04,0.03-0.08,0.06-0.13,0.11l-2.32,2.32c-0.24,0.24-0.54,0.37-0.85,0.4c-0.31,0.03-0.63-0.05-0.9-0.24 c-0.12-0.08-0.26-0.16-0.4-0.24l0,0c-0.17-0.1-0.31-0.18-0.43-0.24l-0.02-0.01c-0.14-0.08-0.29-0.16-0.44-0.23 c-0.15-0.08-0.31-0.15-0.46-0.21l-0.01-0.01c-0.14-0.07-0.3-0.14-0.47-0.21c-0.17-0.07-0.33-0.13-0.49-0.19l-0.03-0.01 c-0.2-0.08-0.45-0.16-0.71-0.25L52.47,28c-0.28-0.09-0.51-0.27-0.66-0.49c-0.17-0.23-0.26-0.52-0.26-0.81v-3.55 c0-0.06,0-0.12-0.01-0.17l0-0.01c-0.01-0.04-0.02-0.08-0.03-0.12c-0.02-0.04-0.04-0.09-0.07-0.13c-0.03-0.04-0.06-0.08-0.1-0.12 s-0.08-0.07-0.12-0.1c-0.04-0.03-0.08-0.05-0.13-0.07l0,0c-0.04-0.02-0.08-0.03-0.13-0.04c-0.05-0.01-0.1-0.01-0.17-0.01h-4.45 c-0.06,0-0.11,0-0.16,0.01c-0.04,0.01-0.08,0.02-0.12,0.04l-0.02,0.01c-0.04,0.02-0.08,0.04-0.11,0.06 c-0.04,0.03-0.09,0.06-0.13,0.11c-0.04,0.04-0.07,0.08-0.1,0.12c-0.03,0.04-0.05,0.08-0.07,0.13c-0.02,0.04-0.03,0.08-0.04,0.12 c-0.01,0.05-0.01,0.1-0.01,0.17v3.24c0,0.33-0.12,0.64-0.32,0.88c-0.2,0.24-0.49,0.42-0.81,0.47c-0.27,0.06-0.52,0.13-0.75,0.2 l-0.22,0.06c-0.31,0.09-0.63,0.21-0.95,0.33l-0.03,0.01c-0.02,0.01-0.04,0.01-0.07,0.02c-0.17,0.06-0.34,0.14-0.52,0.22 c-0.12,0.05-0.23,0.1-0.35,0.15c-0.31,0.14-0.6,0.29-0.86,0.43c-0.27,0.15-0.57,0.2-0.85,0.16c-0.29-0.04-0.57-0.17-0.78-0.39 c-0.8-0.86-1.74-1.72-2.58-2.56c-0.04-0.04-0.09-0.08-0.13-0.11l-0.02-0.01c-0.02-0.01-0.04-0.02-0.05-0.03 c-0.02-0.01-0.03-0.01-0.05-0.02l0,0c-0.02-0.01-0.06-0.02-0.09-0.03c-0.04-0.01-0.1-0.01-0.15-0.01c-0.06,0-0.11,0-0.16,0.01 l-0.01,0c-0.04,0.01-0.08,0.02-0.11,0.03l-0.01,0.01c-0.04,0.02-0.08,0.04-0.12,0.07c-0.05,0.04-0.1,0.08-0.16,0.14l-3.09,3.11 c-0.05,0.05-0.1,0.1-0.13,0.14c-0.03,0.04-0.05,0.08-0.07,0.12l-0.01,0.02c-0.01,0.03-0.02,0.07-0.03,0.11l0,0 c-0.01,0.05-0.01,0.1-0.01,0.16c0,0.12,0.02,0.21,0.05,0.29c0.04,0.08,0.1,0.17,0.19,0.26l2.32,2.32c0.24,0.24,0.37,0.54,0.4,0.85 c0.03,0.31-0.05,0.63-0.24,0.9c-0.08,0.13-0.16,0.26-0.24,0.4l0,0c-0.1,0.17-0.18,0.31-0.24,0.43l-0.01,0.02 c-0.08,0.14-0.16,0.29-0.23,0.44c-0.08,0.15-0.14,0.31-0.21,0.46l-0.01,0.01c-0.07,0.14-0.14,0.3-0.21,0.47 c-0.07,0.17-0.13,0.33-0.19,0.49l-0.01,0.03c-0.08,0.2-0.16,0.45-0.25,0.71l-0.09,0.26c-0.09,0.29-0.27,0.52-0.5,0.68 c-0.23,0.17-0.52,0.26-0.81,0.26h-3.55c-0.07,0-0.12,0-0.17,0.01c-0.04,0.01-0.09,0.02-0.13,0.04c-0.04,0.02-0.09,0.04-0.13,0.07 c-0.04,0.03-0.08,0.06-0.12,0.1c-0.04,0.04-0.07,0.08-0.1,0.12c-0.03,0.04-0.05,0.08-0.07,0.12c-0.02,0.05-0.03,0.09-0.04,0.14 c-0.01,0.05-0.01,0.1-0.01,0.17v4.45c0,0.1,0.02,0.2,0.05,0.27c0.02,0.04,0.04,0.09,0.08,0.14h0c0.03,0.05,0.07,0.09,0.11,0.13h0 c0.04,0.04,0.08,0.07,0.12,0.1c0.04,0.03,0.08,0.05,0.13,0.07c0.04,0.02,0.08,0.03,0.12,0.04l0.01,0c0.05,0.01,0.1,0.01,0.16,0.01 h3.24c0.33,0,0.64,0.12,0.88,0.32c0.24,0.2,0.42,0.49,0.47,0.81c0.06,0.27,0.13,0.52,0.2,0.75l0.06,0.21 c0.04,0.14,0.09,0.3,0.15,0.46c0.07,0.19,0.12,0.34,0.18,0.48c0.06,0.16,0.13,0.31,0.19,0.48c0.06,0.16,0.14,0.32,0.21,0.5 c0.1,0.23,0.2,0.44,0.3,0.63l0.16,0.32c0.13,0.26,0.17,0.55,0.13,0.82c-0.04,0.29-0.18,0.55-0.39,0.76 c-0.79,0.73-1.82,1.74-2.54,2.53c-0.05,0.05-0.09,0.09-0.12,0.13c-0.02,0.03-0.04,0.05-0.04,0.07c-0.01,0.02-0.01,0.03-0.02,0.05 c-0.01,0.02-0.02,0.05-0.03,0.09l-0.01,0.02c-0.01,0.04-0.01,0.08-0.01,0.13c0,0.06,0,0.11,0.01,0.16l0,0.01 c0.01,0.04,0.02,0.07,0.03,0.11l0.01,0.02c0.01,0.03,0.04,0.07,0.07,0.11c0.04,0.05,0.08,0.11,0.14,0.17l3.06,3.11 c0.05,0.04,0.1,0.08,0.14,0.11c0.04,0.03,0.09,0.05,0.13,0.07l0,0c0.05,0.02,0.09,0.03,0.14,0.04c0.05,0.01,0.11,0.01,0.17,0.01 c0.07,0,0.13,0,0.18-0.01l0.01,0c0.04-0.01,0.08-0.02,0.11-0.03c0.04-0.02,0.09-0.04,0.14-0.07c0.04-0.03,0.08-0.06,0.13-0.1 l2.28-2.32c0.23-0.24,0.54-0.38,0.85-0.41c0.32-0.03,0.64,0.05,0.91,0.24c0.13,0.08,0.26,0.16,0.4,0.24l0,0 c0.17,0.1,0.31,0.18,0.43,0.24l0.02,0.01c0.29,0.17,0.59,0.31,0.9,0.44l0.03,0.01c0.14,0.07,0.29,0.13,0.45,0.2 c0.17,0.07,0.33,0.13,0.49,0.19l0.03,0.01c0.2,0.08,0.45,0.17,0.71,0.25l0.25,0.09c0.29,0.09,0.52,0.27,0.68,0.5 c0.17,0.23,0.26,0.52,0.26,0.81v3.55c0,0.12,0.02,0.22,0.05,0.31c0.02,0.04,0.04,0.08,0.07,0.12c0.03,0.04,0.06,0.08,0.1,0.12 c0.08,0.08,0.16,0.13,0.24,0.17c0.09,0.04,0.19,0.05,0.3,0.05h4.45c0.1,0,0.2-0.02,0.27-0.05c0.04-0.02,0.09-0.04,0.14-0.08 c0.04-0.03,0.09-0.06,0.13-0.11c0.04-0.04,0.07-0.08,0.1-0.12c0.03-0.04,0.05-0.08,0.07-0.13c0.02-0.04,0.03-0.08,0.04-0.12 c0.01-0.05,0.01-0.1,0.01-0.17v-3.24c0-0.33,0.12-0.64,0.32-0.88c0.2-0.24,0.49-0.42,0.81-0.48c0.27-0.06,0.52-0.13,0.75-0.2 l0.21-0.06c0.31-0.09,0.63-0.21,0.95-0.33c0.31-0.12,0.63-0.26,0.97-0.41c0.23-0.1,0.44-0.2,0.63-0.3l0.32-0.16 c0.26-0.13,0.55-0.17,0.82-0.13c0.29,0.04,0.55,0.18,0.76,0.39c0.73,0.79,1.74,1.82,2.53,2.54c0.05,0.05,0.09,0.09,0.13,0.12 c0.03,0.02,0.05,0.04,0.07,0.04c0.02,0.01,0.03,0.01,0.05,0.02c0.02,0.01,0.05,0.02,0.09,0.03c0.05,0.01,0.1,0.01,0.17,0.01 c0.06,0,0.12,0,0.17-0.01c0.04-0.01,0.07-0.02,0.09-0.03l0.02-0.01c0.03-0.02,0.07-0.04,0.1-0.06v0c0.04-0.03,0.08-0.07,0.12-0.1 c0,0,2.88-2.84,3.15-3.11c0.04-0.05,0.08-0.1,0.11-0.14c0.03-0.04,0.05-0.09,0.07-0.13l0,0c0.02-0.05,0.03-0.09,0.04-0.14 c0.01-0.05,0.01-0.11,0.01-0.17c0-0.12-0.02-0.23-0.05-0.3c-0.02-0.04-0.04-0.09-0.07-0.14c-0.03-0.04-0.06-0.08-0.1-0.13 l-2.32-2.28c-0.24-0.23-0.38-0.54-0.41-0.85c-0.03-0.32,0.05-0.64,0.24-0.91c0.08-0.13,0.16-0.26,0.24-0.4 c0.09-0.15,0.17-0.3,0.24-0.43l0.01-0.02c0.17-0.29,0.31-0.59,0.44-0.9l0.01-0.03c0.07-0.14,0.13-0.29,0.2-0.45 c0.07-0.17,0.13-0.33,0.19-0.49l0.01-0.03c0.08-0.2,0.16-0.45,0.25-0.71l0.09-0.26c0.09-0.29,0.27-0.52,0.5-0.68 c0.23-0.17,0.52-0.26,0.81-0.26h3.55c0.12,0,0.22-0.02,0.31-0.05c0.04-0.02,0.08-0.04,0.12-0.07c0.04-0.03,0.08-0.06,0.12-0.1 c0.04-0.04,0.07-0.08,0.1-0.12c0.03-0.04,0.05-0.08,0.07-0.13l0,0c0.02-0.04,0.03-0.08,0.04-0.12l0,0c0.01-0.05,0.01-0.1,0.01-0.17 v-4.45c0-0.06,0-0.11-0.01-0.16c-0.01-0.04-0.02-0.08-0.03-0.12l-0.01-0.02c-0.02-0.04-0.04-0.08-0.07-0.12l-0.01-0.02 c-0.03-0.04-0.06-0.07-0.1-0.11c-0.04-0.04-0.08-0.07-0.12-0.1c-0.04-0.03-0.08-0.05-0.13-0.07c-0.04-0.02-0.08-0.03-0.12-0.04 c-0.05-0.01-0.1-0.01-0.17-0.01h-3.24c-0.34,0-0.65-0.13-0.89-0.33c-0.24-0.21-0.41-0.49-0.47-0.81c-0.08-0.31-0.16-0.62-0.25-0.93 c-0.04-0.13-0.09-0.29-0.15-0.47c-0.06-0.17-0.12-0.33-0.18-0.49l-0.01-0.03c-0.01-0.02-0.02-0.05-0.02-0.08 c-0.1-0.26-0.22-0.53-0.33-0.79l-0.04-0.09c-0.13-0.3-0.27-0.58-0.43-0.86l-0.01-0.02c-0.14-0.27-0.19-0.56-0.15-0.84 c0.04-0.29,0.17-0.57,0.39-0.78c0.85-0.86,1.7-1.73,2.56-2.58c0.05-0.05,0.09-0.09,0.12-0.13l0.01-0.02 c0.01-0.02,0.02-0.04,0.03-0.05c0.01-0.02,0.01-0.03,0.02-0.05c0.01-0.02,0.02-0.05,0.03-0.09c0.01-0.04,0.01-0.1,0.01-0.15 c0-0.06,0-0.11-0.01-0.16l0-0.01c-0.01-0.04-0.02-0.07-0.03-0.11l-0.01-0.01c-0.02-0.04-0.04-0.08-0.07-0.12 c-0.04-0.05-0.08-0.1-0.14-0.16L61.35,27.23L61.35,27.23z M62.16,24.5c0.21,0.09,0.41,0.19,0.6,0.32c0.19,0.13,0.37,0.28,0.54,0.45 l3.13,3.13c0.17,0.17,0.32,0.35,0.45,0.54c0.13,0.19,0.24,0.39,0.32,0.6l0,0.01c0.09,0.21,0.16,0.42,0.2,0.65 c0.05,0.23,0.07,0.46,0.07,0.69c0,0.23-0.02,0.47-0.07,0.7c-0.05,0.23-0.12,0.45-0.21,0.66l0,0c-0.09,0.21-0.2,0.4-0.34,0.59 c-0.13,0.19-0.28,0.36-0.45,0.52L64.6,35.2c0.02,0.05,0.05,0.1,0.07,0.14l0,0c0.14,0.3,0.27,0.61,0.39,0.91l0.04,0.1 c0.03,0.04,0.04,0.09,0.05,0.14l0,0.02c0.06,0.16,0.12,0.33,0.18,0.5c0.06,0.18,0.13,0.38,0.19,0.59c0.01,0.04,0.03,0.08,0.04,0.12 h2.19c0.23,0,0.46,0.02,0.69,0.07c0.23,0.04,0.45,0.11,0.66,0.2c0.21,0.09,0.41,0.19,0.6,0.33c0.19,0.13,0.36,0.28,0.53,0.44 l0.03,0.03l0.02,0.03c0.15,0.16,0.3,0.34,0.42,0.52c0.13,0.19,0.23,0.39,0.31,0.59c0.09,0.21,0.15,0.43,0.2,0.65 c0.04,0.22,0.07,0.44,0.07,0.67v4.45c0,0.24-0.02,0.47-0.07,0.69c-0.04,0.22-0.11,0.44-0.19,0.65l0,0 c-0.09,0.21-0.19,0.41-0.32,0.6c-0.13,0.19-0.28,0.37-0.45,0.54c-0.17,0.17-0.35,0.32-0.54,0.45c-0.19,0.13-0.39,0.24-0.6,0.32 c-0.21,0.08-0.42,0.15-0.65,0.19c-0.23,0.04-0.46,0.07-0.7,0.07h-2.57c-0.02,0.06-0.04,0.11-0.06,0.17 c-0.12,0.31-0.26,0.63-0.4,0.95c-0.07,0.15-0.14,0.33-0.22,0.47c-0.13,0.27-0.25,0.53-0.39,0.79l-0.05,0.09 c0.54,0.53,1.09,1.06,1.62,1.6c0.16,0.17,0.3,0.34,0.42,0.53c0.13,0.19,0.23,0.39,0.31,0.6c0.08,0.2,0.14,0.42,0.19,0.64 c0.04,0.23,0.06,0.46,0.06,0.68c0,0.23-0.02,0.46-0.06,0.68c-0.04,0.22-0.1,0.44-0.19,0.64c-0.08,0.2-0.18,0.4-0.3,0.59l0,0 c-0.11,0.18-0.25,0.36-0.4,0.52c-0.04,0.06-0.07,0.1-0.13,0.13l-3.06,3.02c-0.16,0.17-0.34,0.33-0.54,0.46 c-0.19,0.13-0.39,0.24-0.6,0.33l-0.01,0c-0.2,0.09-0.42,0.15-0.64,0.2c-0.23,0.05-0.47,0.07-0.71,0.07c-0.23,0-0.47-0.02-0.7-0.07 c-0.23-0.05-0.45-0.12-0.67-0.21c-0.21-0.09-0.42-0.2-0.61-0.34l0,0c-0.18-0.13-0.36-0.28-0.52-0.44l-1.81-1.81l-0.15,0.07v0 c-0.34,0.15-0.71,0.3-1.1,0.46l-0.03,0.01c-0.18,0.07-0.36,0.13-0.54,0.2c-0.21,0.07-0.41,0.14-0.59,0.19l-0.11,0.04v2.19 c0,0.23-0.02,0.46-0.07,0.69c-0.04,0.23-0.11,0.45-0.2,0.66c-0.09,0.21-0.19,0.41-0.33,0.6c-0.13,0.19-0.28,0.36-0.44,0.53 l-0.05,0.05c-0.16,0.15-0.34,0.29-0.52,0.41c-0.19,0.12-0.38,0.23-0.58,0.32l0,0c-0.21,0.09-0.43,0.15-0.65,0.2 c-0.22,0.04-0.44,0.07-0.67,0.07h-4.45c-0.49,0-0.94-0.09-1.36-0.26c-0.42-0.17-0.79-0.43-1.13-0.77 c-0.17-0.17-0.32-0.35-0.45-0.54c-0.13-0.19-0.24-0.39-0.32-0.6c-0.08-0.21-0.15-0.42-0.19-0.65c-0.04-0.23-0.07-0.46-0.07-0.7 v-2.57c-0.06-0.02-0.11-0.04-0.17-0.06c-0.32-0.12-0.63-0.26-0.95-0.4c-0.16-0.07-0.31-0.14-0.46-0.22l0,0 c-0.27-0.13-0.54-0.25-0.8-0.39L39.25,59c-0.53,0.54-1.06,1.09-1.6,1.62c-0.17,0.16-0.34,0.3-0.53,0.42 c-0.19,0.13-0.39,0.23-0.6,0.31c-0.2,0.08-0.42,0.14-0.64,0.19c-0.23,0.04-0.46,0.06-0.68,0.06s-0.46-0.02-0.68-0.06 c-0.22-0.04-0.44-0.1-0.64-0.19c-0.2-0.08-0.4-0.18-0.59-0.3l-0.03-0.02c-0.18-0.11-0.34-0.24-0.49-0.38 c-0.06-0.04-0.1-0.07-0.13-0.13l-3.04-3.08c-0.17-0.17-0.32-0.35-0.45-0.54c-0.13-0.19-0.24-0.39-0.32-0.6l0-0.01 c-0.09-0.21-0.16-0.42-0.2-0.64c-0.05-0.23-0.07-0.46-0.07-0.7c0-0.23,0.02-0.47,0.07-0.7c0.05-0.23,0.12-0.45,0.21-0.66l0,0 c0.09-0.21,0.2-0.4,0.34-0.59c0.13-0.18,0.28-0.36,0.44-0.51l1.81-1.81l-0.07-0.15h0c-0.08-0.18-0.16-0.36-0.23-0.53l-0.01-0.02 c-0.07-0.18-0.15-0.36-0.22-0.55l-0.01-0.03c-0.07-0.18-0.13-0.36-0.2-0.54c-0.07-0.21-0.14-0.41-0.19-0.59 c-0.01-0.04-0.02-0.07-0.03-0.11h-2.19c-0.23,0-0.46-0.02-0.69-0.07c-0.23-0.04-0.45-0.11-0.66-0.2c-0.21-0.09-0.41-0.2-0.6-0.33 c-0.19-0.13-0.36-0.28-0.53-0.44l-0.03-0.03c-0.16-0.17-0.3-0.35-0.43-0.54c-0.12-0.19-0.23-0.38-0.32-0.58l0,0 c-0.09-0.21-0.15-0.43-0.2-0.65c-0.04-0.22-0.07-0.44-0.07-0.67v-4.45c0-0.24,0.02-0.47,0.07-0.69c0.04-0.22,0.11-0.44,0.19-0.65 l0,0c0.09-0.21,0.19-0.41,0.32-0.6c0.13-0.19,0.28-0.37,0.45-0.54c0.34-0.34,0.72-0.6,1.14-0.77c0.21-0.08,0.42-0.15,0.65-0.19 c0.23-0.04,0.46-0.07,0.7-0.07h2.57c0.02-0.06,0.04-0.11,0.06-0.17c0.12-0.32,0.26-0.63,0.4-0.95c0.07-0.16,0.14-0.31,0.22-0.47 l0,0c0.13-0.27,0.26-0.54,0.39-0.8l0.05-0.09l-1.55-1.55c-0.16-0.16-0.31-0.34-0.44-0.53c-0.13-0.19-0.24-0.39-0.34-0.6l0,0 c-0.09-0.21-0.16-0.43-0.21-0.66c-0.05-0.23-0.07-0.46-0.07-0.69c0-0.23,0.02-0.47,0.07-0.7c0.05-0.23,0.12-0.45,0.21-0.66 c0.09-0.22,0.2-0.42,0.33-0.6c0.13-0.19,0.28-0.36,0.45-0.53c1.03-1.03,2.09-2.17,3.15-3.15c0.16-0.16,0.34-0.31,0.52-0.43 c0.19-0.13,0.39-0.24,0.6-0.32l0.01,0c0.21-0.09,0.42-0.16,0.65-0.2c0.23-0.05,0.46-0.07,0.69-0.07c0.23,0,0.47,0.02,0.7,0.07 c0.23,0.05,0.45,0.12,0.66,0.21c0.21,0.09,0.41,0.21,0.59,0.34l0.02,0.02c0.18,0.13,0.34,0.27,0.5,0.43l1.84,1.8 c0.04-0.02,0.08-0.04,0.15-0.07l0.12-0.06c0.28-0.12,0.57-0.25,0.86-0.37c0.07-0.05,0.12-0.06,0.19-0.07 c0.16-0.06,0.33-0.12,0.5-0.18c0.21-0.07,0.41-0.14,0.59-0.19l0.11-0.04V23.2c0-0.23,0.02-0.46,0.07-0.69 c0.04-0.23,0.11-0.45,0.2-0.66c0.09-0.21,0.19-0.41,0.33-0.6c0.13-0.19,0.28-0.36,0.44-0.53l0.04-0.03 c0.17-0.16,0.35-0.3,0.53-0.43c0.19-0.12,0.38-0.23,0.58-0.32l0,0c0.21-0.09,0.43-0.15,0.65-0.2c0.22-0.04,0.44-0.07,0.67-0.07 h4.45c0.24,0,0.47,0.02,0.69,0.07c0.22,0.04,0.44,0.11,0.65,0.19l0,0c0.21,0.08,0.41,0.19,0.6,0.32c0.19,0.13,0.37,0.28,0.55,0.45 l0.01,0.01c0.17,0.17,0.32,0.35,0.45,0.54c0.13,0.19,0.24,0.39,0.32,0.6c0.08,0.21,0.15,0.42,0.19,0.65 c0.04,0.23,0.07,0.46,0.07,0.7v2.57c0.06,0.02,0.11,0.04,0.17,0.06c0.19,0.07,0.38,0.14,0.57,0.23l0.02,0.01 c0.19,0.08,0.37,0.16,0.55,0.25l0.29,0.14c0.27,0.13,0.53,0.25,0.79,0.39l0.09,0.05l1.55-1.55c0.16-0.16,0.34-0.31,0.53-0.44 c0.19-0.13,0.39-0.24,0.6-0.34l0,0c0.21-0.09,0.43-0.16,0.66-0.21c0.23-0.05,0.46-0.07,0.7-0.07c0.23,0,0.47,0.02,0.69,0.07 c0.15,0.03,0.3,0.07,0.45,0.12C62.05,24.47,62.1,24.48,62.16,24.5L62.16,24.5z M48,32.79c0.33,0,0.67,0.02,1.02,0.05 c0.34,0.03,0.67,0.08,0.99,0.15l0,0c0.32,0.06,0.64,0.15,0.97,0.25c0.32,0.1,0.64,0.22,0.95,0.35l0.02,0.01 c0.3,0.13,0.6,0.27,0.88,0.43c0.28,0.15,0.55,0.32,0.81,0.51l0.01,0.01c0.54,0.36,1.01,0.76,1.46,1.2l0.01,0.01 c0.23,0.23,0.44,0.47,0.64,0.71c0.2,0.25,0.39,0.51,0.57,0.77l0.02,0.03c0.17,0.27,0.34,0.53,0.48,0.8 c0.16,0.28,0.3,0.57,0.44,0.87c0.01,0.02,0.02,0.04,0.03,0.06c0.01,0.02,0.02,0.05,0.02,0.07c0.25,0.6,0.43,1.2,0.54,1.8 c0.06,0.32,0.11,0.65,0.15,0.99c0.03,0.34,0.05,0.68,0.05,1.02c0,0.33-0.02,0.67-0.05,1.02c-0.03,0.34-0.08,0.67-0.15,0.99l0,0 c-0.06,0.32-0.15,0.64-0.25,0.97c-0.1,0.32-0.22,0.64-0.35,0.95l-0.01,0.02c-0.26,0.59-0.57,1.16-0.93,1.69l-0.01,0.02 c-0.18,0.27-0.37,0.52-0.56,0.76c-0.2,0.24-0.41,0.48-0.64,0.71L55.1,50c-0.23,0.23-0.47,0.44-0.71,0.64 c-0.25,0.21-0.51,0.39-0.77,0.57l-0.03,0.02c-0.27,0.17-0.53,0.34-0.8,0.48c-0.28,0.16-0.57,0.3-0.87,0.44l-0.01,0.01 c-0.04,0.02-0.08,0.04-0.13,0.05c-0.6,0.25-1.19,0.42-1.8,0.54c-0.32,0.06-0.65,0.11-0.99,0.15c-0.34,0.03-0.68,0.05-1.02,0.05 c-0.33,0-0.67-0.02-1.02-0.05c-0.34-0.03-0.67-0.08-0.99-0.15l0,0c-0.32-0.06-0.64-0.15-0.97-0.25c-0.32-0.1-0.64-0.22-0.95-0.35 l-0.02-0.01c-0.59-0.26-1.16-0.57-1.69-0.93l-0.02-0.01c-0.27-0.18-0.52-0.37-0.76-0.56c-0.24-0.2-0.48-0.41-0.71-0.64l-0.01-0.01 c-0.23-0.23-0.44-0.47-0.64-0.71c-0.2-0.25-0.39-0.51-0.57-0.77l-0.02-0.03c-0.35-0.53-0.66-1.09-0.92-1.67l-0.01-0.01 c-0.02-0.04-0.04-0.08-0.05-0.13c-0.12-0.29-0.23-0.58-0.31-0.87c-0.09-0.3-0.17-0.61-0.22-0.92c-0.06-0.32-0.11-0.65-0.15-0.99 c-0.03-0.34-0.05-0.68-0.05-1.02c0-0.33,0.02-0.67,0.05-1.02c0.03-0.34,0.08-0.67,0.15-0.99l0,0c0.06-0.32,0.15-0.64,0.25-0.97 c0.1-0.32,0.22-0.64,0.35-0.95l0.01-0.02c0.13-0.29,0.27-0.58,0.42-0.86c0.16-0.29,0.33-0.56,0.51-0.83l0.01-0.02 c0.36-0.54,0.76-1.01,1.2-1.46l0.01-0.01c0.23-0.23,0.47-0.44,0.71-0.64c0.25-0.2,0.51-0.39,0.77-0.57l0.03-0.02 c0.27-0.17,0.53-0.34,0.8-0.48c0.28-0.16,0.57-0.3,0.87-0.44l0.01-0.01c0.04-0.02,0.08-0.04,0.13-0.05 c0.29-0.12,0.57-0.22,0.87-0.31c0.31-0.09,0.61-0.17,0.93-0.23l0,0c0.32-0.06,0.65-0.11,0.99-0.15 C47.33,32.81,47.66,32.79,48,32.79L48,32.79z M49.39,35.67c-0.22-0.04-0.43-0.07-0.65-0.09c-0.23-0.02-0.48-0.04-0.74-0.04 c-0.26,0-0.51,0.01-0.75,0.04c-0.24,0.02-0.49,0.06-0.73,0.11c-0.24,0.05-0.47,0.1-0.68,0.17c-0.2,0.06-0.4,0.13-0.6,0.21 c-0.02,0.01-0.05,0.02-0.07,0.03l-0.02,0.01c-0.22,0.1-0.44,0.2-0.65,0.31l-0.02,0.01c-0.21,0.11-0.41,0.23-0.6,0.36l-0.01,0.01 c-0.19,0.13-0.37,0.26-0.55,0.4v0c-0.19,0.15-0.36,0.3-0.53,0.46c-0.16,0.16-0.31,0.33-0.46,0.51l-0.02,0.02 c-0.14,0.17-0.27,0.35-0.4,0.54l-0.01,0.02c-0.12,0.18-0.24,0.38-0.35,0.59c-0.12,0.22-0.22,0.44-0.32,0.67l0,0.01 c-0.09,0.22-0.17,0.44-0.24,0.66c-0.07,0.23-0.13,0.46-0.17,0.7l0,0c-0.05,0.25-0.08,0.49-0.11,0.74 c-0.02,0.23-0.03,0.48-0.03,0.74c0,0.26,0.01,0.51,0.04,0.75c0.02,0.24,0.06,0.49,0.11,0.73c0.05,0.24,0.1,0.46,0.17,0.68 c0.06,0.21,0.13,0.41,0.21,0.62c0.01,0.02,0.02,0.05,0.03,0.07l0.01,0.02c0.1,0.22,0.2,0.44,0.31,0.65l0.01,0.02 c0.11,0.2,0.23,0.41,0.36,0.6l0.01,0.01c0.13,0.19,0.26,0.37,0.41,0.55c0.15,0.18,0.3,0.35,0.47,0.52 c0.17,0.17,0.35,0.33,0.53,0.47c0.18,0.14,0.36,0.28,0.55,0.4l0.02,0.01c0.18,0.12,0.38,0.24,0.59,0.35 c0.22,0.12,0.44,0.22,0.67,0.32l0.01,0.01c0.22,0.09,0.44,0.17,0.66,0.24c0.23,0.07,0.46,0.13,0.7,0.17l0,0 c0.25,0.05,0.49,0.08,0.74,0.11c0.23,0.02,0.48,0.03,0.74,0.03c0.26,0,0.51-0.01,0.75-0.04c0.24-0.02,0.49-0.06,0.73-0.11 c0.24-0.05,0.47-0.1,0.68-0.17c0.2-0.06,0.4-0.13,0.59-0.21c0.03-0.02,0.05-0.02,0.07-0.03l0.02-0.01c0.22-0.1,0.44-0.2,0.65-0.31 l0.02-0.01c0.2-0.11,0.41-0.23,0.6-0.36l0.01-0.01c0.19-0.13,0.37-0.26,0.55-0.4v0c0.19-0.15,0.36-0.3,0.53-0.46 c0.16-0.16,0.31-0.33,0.46-0.51l0.02-0.02c0.14-0.17,0.27-0.35,0.4-0.54L54.12,47c0.12-0.18,0.24-0.38,0.35-0.59l0,0 c0.12-0.22,0.22-0.44,0.32-0.67l0.01-0.01c0.09-0.22,0.17-0.44,0.24-0.66c0.07-0.23,0.13-0.46,0.17-0.7l0,0 c0.05-0.25,0.08-0.49,0.11-0.74c0.02-0.23,0.03-0.48,0.03-0.74c0-0.26-0.01-0.51-0.04-0.75c-0.02-0.24-0.06-0.49-0.11-0.73 c-0.05-0.24-0.1-0.47-0.17-0.68c-0.06-0.2-0.13-0.4-0.21-0.6c-0.02-0.03-0.02-0.05-0.03-0.07l-0.01-0.02 c-0.1-0.22-0.2-0.44-0.31-0.65l-0.01-0.02c-0.11-0.21-0.23-0.41-0.36-0.6l-0.01-0.01c-0.13-0.19-0.26-0.37-0.41-0.55 c-0.15-0.18-0.3-0.35-0.47-0.52c-0.17-0.17-0.35-0.33-0.53-0.47c-0.18-0.14-0.36-0.28-0.55-0.4l-0.02-0.01 c-0.18-0.13-0.38-0.24-0.59-0.35l0,0c-0.22-0.12-0.44-0.22-0.67-0.32l-0.01-0.01c-0.22-0.09-0.44-0.17-0.66-0.24 c-0.23-0.07-0.46-0.13-0.7-0.17C49.45,35.7,49.42,35.69,49.39,35.67L49.39,35.67z M5.83,34.95c1.85-9.83,7.06-18.48,14.38-24.71 C27.71,3.85,37.42,0,48.02,0C57.34,0,65.96,2.97,73,8.02c7.22,5.18,12.78,12.55,15.69,21.14l-2.63,0.89l-2.63,0.89 c-0.07-0.22-0.15-0.44-0.23-0.65c-2.59-7.19-7.33-13.37-13.44-17.75c-6.13-4.39-13.64-6.97-21.75-6.97 c-9.25,0-17.71,3.35-24.22,8.89c-6.12,5.21-10.54,12.36-12.31,20.5h5.69L8.59,45.41L0,34.95L5.83,34.95L5.83,34.95L5.83,34.95z"/></g></svg>