<svg width="43" height="43" viewBox="0 0 43 43" fill="none" xmlns="http://www.w3.org/2000/svg">
<g filter="url(#filter0_d_8_125)">
<path d="M36.8891 20.7563C36.2073 24.7991 34.2786 28.3529 31.5698 30.9001C28.8464 33.4595 25.3354 35 21.5073 35C17.9089 35 14.5911 33.6388 11.9443 31.3525C9.24271 29.0172 7.24115 25.7161 6.35521 21.9096L8.30937 21.3432C9.07865 24.6565 10.8214 27.5338 13.1766 29.5674C15.4771 31.5562 18.3646 32.7381 21.5036 32.7381C24.8469 32.7381 27.9021 31.3973 30.2682 29.1762C32.5323 27.0488 34.1693 24.1104 34.8219 20.7604H32.7365L35.8682 16.4974L39 20.7563H36.8891ZM26.3672 11.0975C26.349 11.0771 26.3344 11.0649 26.3198 11.0526C26.3052 11.0404 26.287 11.0323 26.2724 11.0241L26.2688 11.02C26.2578 11.0119 26.2432 11.0078 26.225 11.0037C26.2104 11.0037 26.1922 11.0037 26.1703 11.0037C26.1484 11.0037 26.1266 11.0037 26.1083 11.0078C26.0901 11.0119 26.0755 11.016 26.0646 11.0241L26.0573 11.0282C26.0464 11.0363 26.0318 11.0445 26.0172 11.0526C26.0026 11.0649 25.988 11.0771 25.9698 11.0975L25.124 12.043C25.0365 12.1408 24.9271 12.1938 24.8141 12.206C24.701 12.2182 24.5844 12.1856 24.4859 12.1082C24.4422 12.0756 24.3911 12.043 24.3401 12.0104C24.2781 11.9696 24.2271 11.937 24.1833 11.9126L24.176 11.9085C24.125 11.8759 24.0703 11.8433 24.0156 11.8147C23.9609 11.7821 23.9026 11.7536 23.8479 11.7292L23.8443 11.7251C23.7932 11.6966 23.7349 11.668 23.6729 11.6395C23.6109 11.611 23.5526 11.5865 23.4943 11.5621L23.4833 11.558C23.4104 11.5254 23.3193 11.4928 23.2245 11.4561L23.1297 11.4113C23.0276 11.3746 22.9438 11.3012 22.8891 11.2116C22.8271 11.1178 22.7943 10.9997 22.7943 10.8815V9.43468C22.7943 9.41022 22.7943 9.38577 22.7906 9.36539V9.36132C22.787 9.34502 22.7833 9.32871 22.7797 9.31241C22.7724 9.29611 22.7651 9.27573 22.7542 9.25943C22.7432 9.24313 22.7323 9.22683 22.7177 9.21053C22.7031 9.19422 22.6885 9.182 22.674 9.16977C22.6594 9.15755 22.6448 9.14939 22.6266 9.14124C22.612 9.13309 22.5974 9.12902 22.5792 9.12494C22.5609 9.12087 22.5427 9.12087 22.5172 9.12087H20.8948C20.8729 9.12087 20.8547 9.12087 20.8365 9.12494C20.8219 9.12902 20.8073 9.13309 20.7927 9.14124L20.7854 9.14532C20.7708 9.15347 20.7563 9.16162 20.7453 9.16977C20.7307 9.182 20.7125 9.19423 20.6979 9.2146C20.6833 9.2309 20.6724 9.24721 20.6615 9.26351C20.6505 9.27981 20.6432 9.29611 20.6359 9.31649C20.6286 9.33279 20.625 9.34909 20.6214 9.36539C20.6177 9.38577 20.6177 9.40615 20.6177 9.43468V10.7551C20.6177 10.8896 20.574 11.016 20.501 11.1138C20.4281 11.2116 20.3224 11.2849 20.2057 11.3053C20.1073 11.3298 20.0161 11.3583 19.9323 11.3868L19.8521 11.4113C19.7391 11.448 19.6224 11.4969 19.5057 11.5458L19.4948 11.5498C19.4875 11.5539 19.4802 11.5539 19.4693 11.558C19.4073 11.5824 19.3453 11.615 19.2797 11.6476C19.2359 11.668 19.1958 11.6884 19.1521 11.7088C19.0391 11.7658 18.9333 11.827 18.8385 11.884C18.7401 11.9452 18.6307 11.9655 18.5286 11.9492C18.4229 11.9329 18.3208 11.8799 18.2443 11.7903C17.9526 11.4398 17.6099 11.0893 17.3036 10.747C17.2891 10.7307 17.2708 10.7144 17.2563 10.7021L17.249 10.6981C17.2417 10.694 17.2344 10.6899 17.2307 10.6858C17.2234 10.6818 17.2198 10.6818 17.2125 10.6777C17.2052 10.6736 17.1906 10.6695 17.1797 10.6655C17.1651 10.6614 17.1432 10.6614 17.125 10.6614C17.1031 10.6614 17.0849 10.6614 17.0667 10.6655H17.063C17.0484 10.6695 17.0339 10.6736 17.0229 10.6777L17.0193 10.6818C17.0047 10.6899 16.9901 10.6981 16.9755 10.7103C16.9573 10.7266 16.9391 10.7429 16.9172 10.7674L15.7906 12.0348C15.7724 12.0552 15.7542 12.0756 15.7432 12.0919C15.7323 12.1082 15.725 12.1245 15.7177 12.1408L15.7141 12.1489C15.7104 12.1612 15.7068 12.1775 15.7031 12.1938C15.6995 12.2141 15.6995 12.2345 15.6995 12.259C15.6995 12.3079 15.7068 12.3446 15.7177 12.3772C15.7323 12.4098 15.7542 12.4464 15.787 12.4831L16.6328 13.4286C16.7203 13.5264 16.7677 13.6487 16.7786 13.775C16.7896 13.9014 16.7604 14.0318 16.6911 14.1418C16.662 14.1948 16.6328 14.2478 16.6036 14.3048C16.5672 14.3741 16.538 14.4312 16.5161 14.4801L16.5125 14.4882C16.4833 14.5453 16.4542 14.6064 16.4286 14.6676C16.3995 14.7287 16.3776 14.7939 16.3521 14.855L16.3484 14.8591C16.3229 14.9162 16.2974 14.9814 16.2719 15.0507C16.2464 15.1199 16.2245 15.1851 16.2026 15.2503L16.199 15.2626C16.1698 15.3441 16.1406 15.446 16.1078 15.5519L16.075 15.6579C16.0422 15.7761 15.9766 15.8698 15.8927 15.935C15.8089 16.0043 15.7031 16.041 15.5974 16.041H14.3031C14.2776 16.041 14.2594 16.041 14.2411 16.0451C14.2266 16.0491 14.2083 16.0532 14.1938 16.0614C14.1792 16.0695 14.1609 16.0777 14.1464 16.0899C14.1318 16.1021 14.1172 16.1143 14.1026 16.1306C14.088 16.1469 14.0771 16.1633 14.0661 16.1796C14.0552 16.1959 14.0479 16.2122 14.0406 16.2285C14.0333 16.2488 14.0297 16.2651 14.026 16.2855C14.0224 16.3059 14.0224 16.3263 14.0224 16.3548V18.1684C14.0224 18.2091 14.0297 18.2499 14.0406 18.2784C14.0479 18.2947 14.0552 18.3151 14.0698 18.3355C14.0807 18.3558 14.0953 18.3721 14.1099 18.3884C14.1245 18.4048 14.1391 18.417 14.1536 18.4292C14.1682 18.4414 14.1828 18.4496 14.201 18.4577C14.2156 18.4659 14.2302 18.47 14.2448 18.474H14.2484C14.2667 18.4781 14.2849 18.4781 14.3068 18.4781H15.488C15.6083 18.4781 15.7214 18.527 15.8089 18.6085C15.8964 18.69 15.962 18.8082 15.9802 18.9386C16.0021 19.0487 16.0276 19.1506 16.0531 19.2443L16.075 19.3299C16.0896 19.3869 16.1078 19.4521 16.1297 19.5173C16.1552 19.5948 16.1734 19.6559 16.1953 19.713C16.2172 19.7782 16.2427 19.8393 16.2646 19.9086C16.2865 19.9738 16.3156 20.039 16.3411 20.1124C16.3776 20.2061 16.4141 20.2917 16.4505 20.3691L16.5089 20.4995C16.5563 20.6055 16.5708 20.7237 16.5562 20.8337C16.5417 20.9519 16.4906 21.0579 16.4141 21.1435C16.126 21.441 15.7505 21.8526 15.488 22.1745C15.4698 22.1949 15.4552 22.2112 15.4443 22.2275C15.437 22.2398 15.4297 22.2479 15.4297 22.2561C15.426 22.2642 15.426 22.2683 15.4224 22.2764C15.4187 22.2846 15.4151 22.2968 15.4115 22.3131L15.4078 22.3213C15.4042 22.3376 15.4042 22.3539 15.4042 22.3742C15.4042 22.3987 15.4042 22.4191 15.4078 22.4395V22.4435C15.4115 22.4598 15.4151 22.4721 15.4187 22.4884L15.4224 22.4965C15.426 22.5087 15.437 22.525 15.4479 22.5413C15.4625 22.5617 15.4771 22.5862 15.499 22.6106L16.6146 23.8781C16.6328 23.8944 16.651 23.9107 16.6656 23.9229C16.6802 23.9351 16.6984 23.9433 16.713 23.9514C16.7312 23.9596 16.7458 23.9637 16.7641 23.9677C16.7823 23.9718 16.8042 23.9718 16.826 23.9718C16.8516 23.9718 16.8734 23.9718 16.8917 23.9677H16.8953C16.9099 23.9637 16.9245 23.9596 16.9354 23.9555C16.95 23.9474 16.9682 23.9392 16.9865 23.927C17.001 23.9148 17.0156 23.9025 17.0339 23.8862L17.8651 22.9407C17.949 22.8429 18.062 22.7859 18.175 22.7736C18.2917 22.7614 18.4083 22.794 18.5068 22.8714C18.5542 22.9041 18.6016 22.9367 18.6526 22.9693C18.7146 23.01 18.7656 23.0426 18.8094 23.0671L18.8167 23.0711C18.9224 23.1404 19.0318 23.1975 19.1448 23.2505L19.1557 23.2545C19.2068 23.2831 19.2615 23.3075 19.3198 23.3361C19.3818 23.3646 19.4401 23.389 19.4984 23.4135L19.5094 23.4176C19.5823 23.4502 19.6734 23.4868 19.7682 23.5194L19.8594 23.5561C19.9651 23.5928 20.049 23.6662 20.1073 23.7599C20.1693 23.8536 20.2021 23.9718 20.2021 24.09V25.5368C20.2021 25.5857 20.2094 25.6265 20.2203 25.6631C20.2276 25.6794 20.2349 25.6957 20.2458 25.712C20.2568 25.7283 20.2677 25.7446 20.2823 25.7609C20.3115 25.7935 20.3406 25.8139 20.3698 25.8302C20.4026 25.8465 20.4391 25.8506 20.4792 25.8506H22.1016C22.138 25.8506 22.1745 25.8425 22.2 25.8302C22.2146 25.8221 22.2328 25.8139 22.251 25.7976C22.2656 25.7854 22.2839 25.7732 22.2984 25.7528C22.313 25.7365 22.324 25.7202 22.3349 25.7039C22.3458 25.6876 22.3531 25.6713 22.3604 25.6509C22.3677 25.6346 22.3714 25.6183 22.375 25.602C22.3786 25.5816 22.3786 25.5612 22.3786 25.5327V24.2123C22.3786 24.0778 22.4224 23.9514 22.4953 23.8536C22.5682 23.7558 22.674 23.6825 22.7906 23.658C22.8891 23.6336 22.9802 23.605 23.0641 23.5765L23.1406 23.552C23.2536 23.5154 23.3703 23.4665 23.487 23.4176C23.6 23.3687 23.7167 23.3116 23.8406 23.2505C23.9245 23.2097 24.001 23.169 24.0703 23.1282L24.187 23.063C24.2818 23.01 24.3875 22.9937 24.4859 23.01C24.5917 23.0263 24.6865 23.0834 24.763 23.169C25.0292 23.4909 25.3974 23.9107 25.6854 24.2041C25.7036 24.2245 25.7182 24.2408 25.7328 24.253C25.7438 24.2612 25.751 24.2693 25.7583 24.2693C25.7656 24.2734 25.7693 24.2734 25.7766 24.2775C25.7839 24.2816 25.7948 24.2856 25.8094 24.2897C25.8276 24.2938 25.8458 24.2938 25.8714 24.2938C25.8932 24.2938 25.9151 24.2938 25.9333 24.2897C25.9479 24.2856 25.9589 24.2816 25.9661 24.2775L25.9734 24.2734C25.9844 24.2653 25.999 24.2571 26.0099 24.249C26.0245 24.2367 26.0391 24.2204 26.0536 24.2082C26.0536 24.2082 27.1036 23.0508 27.2021 22.9407C27.2167 22.9204 27.2313 22.9 27.2422 22.8837C27.2531 22.8674 27.2604 22.847 27.2677 22.8307C27.275 22.8103 27.2786 22.794 27.2823 22.7736C27.2859 22.7533 27.2859 22.7288 27.2859 22.7044C27.2859 22.6554 27.2786 22.6106 27.2677 22.5821C27.2604 22.5658 27.2531 22.5454 27.2422 22.525C27.2313 22.5087 27.2203 22.4924 27.2057 22.4721L26.3599 21.5429C26.2724 21.4491 26.2214 21.3228 26.2104 21.1964C26.1995 21.066 26.2286 20.9356 26.2979 20.8256C26.3271 20.7726 26.3563 20.7196 26.3854 20.6626C26.4182 20.6014 26.4474 20.5403 26.4729 20.4873L26.4766 20.4792C26.5385 20.361 26.5896 20.2387 26.637 20.1124L26.6406 20.1001C26.6661 20.0431 26.688 19.982 26.7135 19.9167C26.7391 19.8475 26.7609 19.7823 26.7828 19.717L26.7865 19.7048C26.8156 19.6233 26.8448 19.5214 26.8776 19.4155L26.9104 19.3095C26.9432 19.1913 27.0089 19.0976 27.0927 19.0324C27.1766 18.9631 27.2823 18.9264 27.388 18.9264H28.6823C28.726 18.9264 28.7625 18.9183 28.7953 18.906C28.8099 18.8979 28.8245 18.8897 28.8391 18.8775C28.8536 18.8653 28.8682 18.8531 28.8828 18.8368C28.8974 18.8204 28.9083 18.8041 28.9193 18.7878C28.9302 18.7715 28.9375 18.7552 28.9448 18.7349C28.9521 18.7186 28.9557 18.7023 28.9594 18.686C28.963 18.6656 28.963 18.6452 28.963 18.6167V16.8031C28.963 16.7786 28.963 16.7583 28.9594 16.7379C28.9557 16.7216 28.9521 16.7053 28.9484 16.689L28.9448 16.6808C28.9375 16.6645 28.9302 16.6482 28.9193 16.6319L28.9156 16.6238C28.9047 16.6075 28.8937 16.5952 28.8792 16.5789C28.8646 16.5626 28.85 16.5504 28.8354 16.5382C28.8208 16.526 28.8062 16.5178 28.788 16.5097C28.7734 16.5015 28.7589 16.4974 28.7443 16.4934C28.726 16.4893 28.7078 16.4893 28.6823 16.4893H27.501C27.3771 16.4893 27.2641 16.4363 27.1766 16.3548C27.0891 16.2692 27.0271 16.1551 27.0052 16.0247C26.976 15.8983 26.9469 15.772 26.9141 15.6457C26.8995 15.5927 26.8813 15.5275 26.8594 15.4541C26.8375 15.3848 26.8156 15.3196 26.7938 15.2544L26.7901 15.2422C26.7865 15.234 26.7828 15.2218 26.7828 15.2096C26.7464 15.1036 26.7026 14.9936 26.6625 14.8876L26.6479 14.851C26.6005 14.7287 26.5495 14.6146 26.4911 14.5005L26.4875 14.4923C26.4365 14.3823 26.4182 14.2641 26.4328 14.15C26.4474 14.0318 26.4948 13.9177 26.575 13.8321C26.8849 13.4816 27.1948 13.127 27.5083 12.7806C27.5266 12.7602 27.5411 12.7439 27.5521 12.7276L27.5557 12.7195C27.5594 12.7113 27.563 12.7032 27.5667 12.6991C27.5703 12.691 27.5703 12.6869 27.574 12.6787C27.5776 12.6706 27.5813 12.6584 27.5849 12.6421C27.5885 12.6258 27.5885 12.6013 27.5885 12.5809C27.5885 12.5565 27.5885 12.5361 27.5849 12.5157V12.5116C27.5813 12.4953 27.5776 12.4831 27.574 12.4668L27.5703 12.4627C27.563 12.4464 27.5557 12.4301 27.5448 12.4138C27.5302 12.3935 27.5156 12.3731 27.4938 12.3486L26.3672 11.0975ZM26.6625 9.98486C26.7391 10.0215 26.812 10.0623 26.8813 10.1153C26.9505 10.1683 27.0161 10.2294 27.0781 10.2987L28.2193 11.5743C28.2812 11.6436 28.3359 11.7169 28.3833 11.7944C28.4307 11.8718 28.4708 11.9533 28.5 12.0389V12.043C28.5328 12.1286 28.5583 12.2141 28.5729 12.3079C28.5911 12.4016 28.5984 12.4953 28.5984 12.5891C28.5984 12.6828 28.5911 12.7806 28.5729 12.8744C28.5547 12.9681 28.5292 13.0578 28.4964 13.1433C28.4635 13.2289 28.4234 13.3064 28.3724 13.3838C28.325 13.4612 28.2703 13.5305 28.2083 13.5957L27.5521 14.3456C27.5594 14.366 27.5703 14.3864 27.5776 14.4027C27.6286 14.5249 27.676 14.6513 27.7198 14.7735L27.7344 14.8143C27.7453 14.8306 27.749 14.851 27.7526 14.8713V14.8795C27.7745 14.9447 27.7964 15.014 27.8182 15.0833C27.8401 15.1566 27.8656 15.2381 27.8875 15.3237C27.8911 15.34 27.8984 15.3563 27.9021 15.3726H28.7005C28.7844 15.3726 28.8682 15.3808 28.9521 15.4011C29.0359 15.4174 29.1161 15.446 29.1927 15.4827C29.2693 15.5193 29.3422 15.5601 29.4115 15.6171C29.4807 15.6701 29.5427 15.7313 29.6047 15.7965L29.6156 15.8087L29.6229 15.8209C29.6776 15.8861 29.7323 15.9595 29.776 16.0328C29.8234 16.1103 29.8599 16.1918 29.8891 16.2733C29.9219 16.3589 29.9438 16.4485 29.962 16.5382C29.9766 16.6279 29.9875 16.7175 29.9875 16.8112V18.6248C29.9875 18.7226 29.9802 18.8164 29.962 18.906C29.9474 18.9957 29.9219 19.0854 29.8927 19.1709C29.8599 19.2565 29.8234 19.338 29.776 19.4155C29.7286 19.4929 29.674 19.5663 29.612 19.6355C29.55 19.7048 29.4844 19.766 29.4151 19.8189C29.3458 19.8719 29.2729 19.9167 29.1964 19.9493C29.1198 19.982 29.0432 20.0105 28.9594 20.0268C28.8755 20.0431 28.7917 20.0553 28.7042 20.0553H27.7672C27.7599 20.0798 27.7526 20.1001 27.7453 20.1246C27.7016 20.2509 27.6505 20.3813 27.5995 20.5118C27.574 20.5729 27.5484 20.6462 27.5193 20.7033C27.4719 20.8133 27.4281 20.9193 27.3771 21.0253L27.3589 21.0619C27.5557 21.2779 27.7563 21.4939 27.9495 21.714C28.0078 21.7833 28.0589 21.8526 28.1026 21.93C28.15 22.0075 28.1865 22.089 28.2156 22.1745C28.2448 22.2561 28.2667 22.3457 28.2849 22.4354C28.2995 22.5291 28.3068 22.6228 28.3068 22.7125C28.3068 22.8062 28.2995 22.9 28.2849 22.9896C28.2703 23.0793 28.2484 23.169 28.2156 23.2505C28.1865 23.332 28.15 23.4135 28.1063 23.4909C28.0661 23.5643 28.0151 23.6376 27.9604 23.7028C27.9458 23.7273 27.9349 23.7436 27.913 23.7558L26.7974 24.9866C26.7391 25.0559 26.6734 25.1211 26.6005 25.1741C26.5313 25.2271 26.4583 25.2719 26.3818 25.3086H26.3781C26.3052 25.3452 26.225 25.3697 26.1448 25.3901C26.0609 25.4105 25.9734 25.4186 25.8859 25.4186C25.8021 25.4186 25.7146 25.4105 25.6307 25.3901C25.5469 25.3697 25.4667 25.3412 25.3865 25.3045C25.3099 25.2678 25.2333 25.223 25.1641 25.1659C25.0984 25.1129 25.0328 25.0518 24.9745 24.9866L24.3146 24.249L24.2599 24.2775C24.1359 24.3386 24.001 24.3997 23.8589 24.465L23.8479 24.469C23.7823 24.4976 23.7167 24.522 23.651 24.5505C23.5745 24.5791 23.5016 24.6076 23.4359 24.628L23.3958 24.6443V25.5368C23.3958 25.6305 23.3885 25.7243 23.3703 25.818C23.3557 25.9117 23.3302 26.0014 23.2974 26.087C23.2646 26.1726 23.2281 26.2541 23.1771 26.3315C23.1297 26.4089 23.075 26.4782 23.0167 26.5475L22.9984 26.5679C22.9401 26.629 22.8745 26.6861 22.8089 26.735C22.7396 26.7839 22.6703 26.8287 22.5974 26.8654C22.5208 26.9021 22.4406 26.9265 22.3604 26.9469C22.2802 26.9632 22.2 26.9754 22.1161 26.9754H20.4938C20.3151 26.9754 20.151 26.9388 19.9979 26.8695C19.8448 26.8002 19.7099 26.6942 19.5859 26.5557C19.524 26.4864 19.4693 26.413 19.4219 26.3356C19.3745 26.2582 19.3344 26.1766 19.3052 26.0911C19.276 26.0055 19.2505 25.9199 19.2359 25.8262C19.2214 25.7324 19.2104 25.6387 19.2104 25.5409V24.4935C19.1885 24.4853 19.1703 24.4772 19.1484 24.469C19.0318 24.4201 18.9187 24.3631 18.8021 24.306C18.7437 24.2775 18.6891 24.249 18.6344 24.2163C18.5359 24.1634 18.4375 24.1145 18.3427 24.0574L18.3099 24.0452C18.1167 24.2653 17.9234 24.4894 17.7266 24.7054C17.6646 24.7706 17.6026 24.8277 17.5333 24.8766C17.4641 24.9296 17.3911 24.9703 17.3146 25.0029C17.2417 25.0355 17.1615 25.06 17.0813 25.0803C16.9974 25.0966 16.9135 25.1048 16.8333 25.1048C16.7531 25.1048 16.6656 25.0966 16.5854 25.0803C16.5052 25.064 16.425 25.0396 16.3521 25.0029C16.2792 24.9703 16.2063 24.9296 16.137 24.8806L16.126 24.8725C16.0604 24.8277 16.0021 24.7747 15.9474 24.7176C15.9255 24.7013 15.9109 24.6891 15.9 24.6646L14.7917 23.4094C14.7297 23.3401 14.675 23.2668 14.6276 23.1893C14.5802 23.1119 14.5401 23.0304 14.5109 22.9448V22.9407C14.4781 22.8551 14.4526 22.7696 14.438 22.6799C14.4198 22.5862 14.4125 22.4924 14.4125 22.3946C14.4125 22.3009 14.4198 22.2031 14.438 22.1093C14.4563 22.0156 14.4818 21.9259 14.5146 21.8404C14.5474 21.7548 14.5875 21.6773 14.6385 21.5999C14.6859 21.5265 14.7406 21.4532 14.799 21.3921L15.4589 20.6544L15.4333 20.5933C15.4042 20.5199 15.375 20.4466 15.3495 20.3773L15.3458 20.3691C15.3203 20.2958 15.2911 20.2224 15.2656 20.145L15.262 20.1327C15.2365 20.0594 15.2146 19.986 15.1891 19.9127C15.1635 19.8271 15.138 19.7456 15.1198 19.6722C15.1161 19.6559 15.1125 19.6437 15.1089 19.6274H14.3104C14.2266 19.6274 14.1427 19.6192 14.0589 19.5989C13.975 19.5826 13.8948 19.554 13.8182 19.5173C13.7417 19.4807 13.6687 19.4358 13.5995 19.3829C13.5302 19.3299 13.4682 19.2687 13.4062 19.2035L13.3953 19.1913C13.337 19.122 13.2859 19.0487 13.2385 18.9712C13.1948 18.8938 13.1547 18.8164 13.1219 18.7349C13.0891 18.6493 13.0672 18.5596 13.049 18.47C13.0344 18.3803 13.0234 18.2906 13.0234 18.1969V16.3833C13.0234 16.2855 13.0307 16.1918 13.049 16.1021C13.0635 16.0125 13.0891 15.9228 13.1182 15.8372C13.151 15.7516 13.1875 15.6701 13.2349 15.5927C13.2823 15.5153 13.337 15.4419 13.399 15.3726C13.5229 15.234 13.6615 15.1281 13.8146 15.0588C13.8911 15.0262 13.9677 14.9977 14.0516 14.9814C14.1354 14.9651 14.2193 14.9528 14.3068 14.9528H15.2438C15.251 14.9284 15.2583 14.908 15.2656 14.8836C15.3094 14.7531 15.3604 14.6268 15.4115 14.4964C15.437 14.4312 15.4625 14.3701 15.4917 14.3048C15.5391 14.1948 15.5865 14.0848 15.6339 13.9788L15.6521 13.9421L15.087 13.3104C15.0286 13.2452 14.974 13.1719 14.9266 13.0944C14.8792 13.017 14.8391 12.9355 14.8026 12.8499C14.7698 12.7643 14.7443 12.6747 14.726 12.5809C14.7078 12.4872 14.7005 12.3935 14.7005 12.2997C14.7005 12.206 14.7078 12.1082 14.726 12.0144C14.7443 11.9207 14.7698 11.831 14.8026 11.7455C14.8354 11.6558 14.8755 11.5743 14.9229 11.5009C14.9703 11.4235 15.025 11.3542 15.087 11.2849C15.4625 10.8652 15.849 10.4006 16.2354 10.0012C16.2938 9.93596 16.3594 9.87483 16.425 9.82592C16.4943 9.77294 16.5672 9.72811 16.6438 9.69551H16.6474C16.724 9.65883 16.8005 9.6303 16.8844 9.614C16.9682 9.59362 17.0521 9.58547 17.1359 9.58547C17.2198 9.58547 17.3073 9.59362 17.3911 9.614C17.475 9.63437 17.5552 9.6629 17.6318 9.69958C17.7083 9.73626 17.7812 9.78516 17.8469 9.83815L17.8542 9.8463C17.9198 9.89928 17.9781 9.95634 18.0365 10.0215L18.7073 10.7551C18.7219 10.747 18.7365 10.7388 18.762 10.7266L18.8057 10.7021C18.9078 10.6532 19.0135 10.6003 19.1193 10.5514C19.1448 10.531 19.163 10.5269 19.1885 10.5228C19.2469 10.4984 19.3089 10.4739 19.3708 10.4495C19.4474 10.4209 19.5203 10.3924 19.5859 10.372L19.626 10.3557V9.45505C19.626 9.36132 19.6333 9.26758 19.6516 9.17385C19.6661 9.08011 19.6917 8.99045 19.7245 8.90487C19.7573 8.81928 19.7937 8.73777 19.8448 8.66034C19.8922 8.58291 19.9469 8.51362 20.0052 8.44434L20.0198 8.43211C20.0818 8.36691 20.1474 8.30985 20.213 8.25687C20.2823 8.20796 20.3516 8.16313 20.4245 8.12646C20.501 8.08978 20.5813 8.06532 20.6615 8.04495C20.7417 8.02864 20.8219 8.01642 20.9057 8.01642H22.5281C22.6156 8.01642 22.6995 8.02457 22.7797 8.04495C22.8599 8.06125 22.9401 8.08978 23.0167 8.12238C23.0932 8.15498 23.1661 8.19981 23.2354 8.25279C23.3047 8.30578 23.3703 8.36691 23.4359 8.43619L23.4396 8.44027C23.5016 8.50955 23.5563 8.58291 23.6036 8.66034C23.651 8.73777 23.6911 8.81928 23.7203 8.90487C23.7495 8.99045 23.775 9.07604 23.7896 9.16977C23.8042 9.26351 23.8151 9.35724 23.8151 9.45505V10.5024C23.837 10.5106 23.8552 10.5187 23.8771 10.5269C23.9464 10.5554 24.0156 10.584 24.0849 10.6206L24.0922 10.6247C24.1615 10.6573 24.2271 10.6899 24.2927 10.7266L24.3984 10.7837C24.4969 10.8366 24.5917 10.8855 24.6865 10.9426L24.7193 10.963L25.2844 10.3313C25.3427 10.2661 25.4083 10.2049 25.4776 10.152C25.5469 10.099 25.6198 10.0541 25.6964 10.0134C25.7729 9.97671 25.8531 9.94818 25.937 9.92781C26.0208 9.90743 26.1047 9.89928 26.1922 9.89928C26.276 9.89928 26.3635 9.90743 26.4438 9.92781C26.4984 9.94003 26.5531 9.95633 26.6078 9.97671C26.6224 9.97264 26.6406 9.97671 26.6625 9.98486ZM21.5 13.3634C21.6203 13.3634 21.7443 13.3716 21.8719 13.3838C21.9958 13.396 22.1161 13.4164 22.2328 13.4449C22.3495 13.4694 22.4661 13.5061 22.5865 13.5468C22.7031 13.5876 22.8198 13.6365 22.9328 13.6895L22.9401 13.6935C23.0495 13.7465 23.1589 13.8036 23.2609 13.8688C23.363 13.9299 23.4615 13.9992 23.5562 14.0766L23.5599 14.0807C23.7568 14.2274 23.9281 14.3904 24.0922 14.5697L24.0958 14.5738C24.1797 14.6676 24.2563 14.7654 24.3292 14.8632C24.4021 14.9651 24.4714 15.071 24.537 15.177L24.5443 15.1892C24.6063 15.2993 24.6682 15.4052 24.7193 15.5153C24.7776 15.6294 24.8286 15.7476 24.8797 15.8698C24.8833 15.878 24.887 15.8861 24.8906 15.8943C24.8943 15.9024 24.8979 15.9146 24.8979 15.9228C24.9891 16.1673 25.0547 16.4119 25.0948 16.6564C25.1167 16.7868 25.1349 16.9213 25.1495 17.0599C25.1604 17.1984 25.1677 17.337 25.1677 17.4755C25.1677 17.61 25.1604 17.7486 25.1495 17.8912C25.1385 18.0298 25.1203 18.1643 25.0948 18.2947C25.0729 18.4251 25.0401 18.5555 25.0036 18.69C24.9672 18.8204 24.9234 18.9509 24.876 19.0772L24.8724 19.0854C24.7776 19.3258 24.6646 19.5581 24.5333 19.7741L24.5297 19.7823C24.4641 19.8923 24.3948 19.9942 24.3255 20.092C24.2526 20.1898 24.176 20.2876 24.0922 20.3813L24.0885 20.3773C24.0047 20.471 23.9172 20.5566 23.8297 20.6381C23.7385 20.7237 23.6437 20.797 23.549 20.8704L23.538 20.8786C23.4396 20.9478 23.3448 21.0171 23.2464 21.0742C23.1443 21.1394 23.0385 21.1964 22.9292 21.2535L22.9255 21.2576C22.9109 21.2657 22.8964 21.2739 22.8781 21.2779C22.6594 21.3798 22.4443 21.4491 22.2219 21.498C22.1052 21.5225 21.9849 21.5429 21.8609 21.5592C21.737 21.5714 21.613 21.5795 21.4891 21.5795C21.3688 21.5795 21.2448 21.5714 21.1172 21.5592C20.9932 21.5469 20.8729 21.5265 20.7563 21.498C20.6396 21.4736 20.5229 21.4369 20.4026 21.3961C20.2859 21.3554 20.1693 21.3065 20.0563 21.2535L20.049 21.2494C19.8339 21.1435 19.626 21.0171 19.4328 20.8704L19.4255 20.8663C19.3271 20.793 19.2359 20.7155 19.1484 20.6381C19.0609 20.5566 18.9734 20.471 18.8896 20.3773L18.8859 20.3732C18.8021 20.2795 18.7255 20.1816 18.6526 20.0838C18.5797 19.982 18.5104 19.876 18.4448 19.77L18.4375 19.7578C18.3099 19.5418 18.1969 19.3136 18.1021 19.0772L18.0984 19.0731C18.0911 19.0568 18.0839 19.0405 18.0802 19.0201C18.0365 18.902 17.9964 18.7838 17.9672 18.6656C17.9344 18.5433 17.9052 18.417 17.887 18.2906C17.8651 18.1602 17.8469 18.0257 17.8323 17.8872C17.8214 17.7486 17.8141 17.61 17.8141 17.4715C17.8141 17.337 17.8214 17.1984 17.8323 17.0558C17.8432 16.9172 17.8615 16.7827 17.887 16.6523C17.9089 16.5219 17.9417 16.3915 17.9781 16.257C18.0146 16.1266 18.0583 15.9962 18.1057 15.8698L18.1094 15.8617C18.1568 15.7435 18.2078 15.6253 18.2625 15.5112C18.3208 15.393 18.3828 15.283 18.4484 15.1729L18.4521 15.1648C18.5833 14.9447 18.7292 14.7531 18.8896 14.5697L18.8932 14.5657C18.9771 14.4719 19.0646 14.3864 19.1521 14.3048C19.2432 14.2233 19.338 14.1459 19.4328 14.0725L19.4438 14.0644C19.5422 13.9951 19.637 13.9258 19.7354 13.8688C19.8375 13.8036 19.9432 13.7465 20.0526 13.6895L20.0563 13.6854C20.0708 13.6772 20.0854 13.6691 20.1036 13.665C20.2094 13.6161 20.3115 13.5753 20.4208 13.5387C20.5339 13.502 20.6432 13.4694 20.7599 13.4449C20.8766 13.4205 20.9969 13.4001 21.1208 13.3838C21.2557 13.3716 21.376 13.3634 21.5 13.3634ZM22.0068 14.5371C21.9266 14.5208 21.85 14.5086 21.7698 14.5005C21.6859 14.4923 21.5948 14.4842 21.5 14.4842C21.4052 14.4842 21.3141 14.4882 21.2266 14.5005C21.1391 14.5086 21.0479 14.5249 20.9604 14.5453C20.8729 14.5657 20.7891 14.5861 20.7125 14.6146C20.6396 14.639 20.5667 14.6676 20.4938 14.7002C20.4865 14.7042 20.4755 14.7083 20.4682 14.7124L20.4609 14.7165C20.3807 14.7572 20.3005 14.798 20.224 14.8428L20.2167 14.8469C20.1401 14.8917 20.0672 14.9406 19.9979 14.9936L19.9943 14.9977C19.925 15.0507 19.8594 15.1036 19.7938 15.1607C19.7245 15.2218 19.6625 15.283 19.6005 15.3482C19.5422 15.4134 19.4875 15.4826 19.4328 15.556L19.4255 15.5642C19.3745 15.6334 19.3271 15.7068 19.2797 15.7842L19.276 15.7924C19.2323 15.8657 19.1885 15.9473 19.1484 16.0328C19.1047 16.1225 19.0682 16.2122 19.0318 16.3059V16.31C18.999 16.3996 18.9698 16.4893 18.9443 16.5789C18.9188 16.6727 18.8969 16.7664 18.8823 16.8642C18.8641 16.9661 18.8531 17.0639 18.8422 17.1658C18.8349 17.2595 18.8313 17.3614 18.8313 17.4674C18.8313 17.5734 18.8349 17.6752 18.8458 17.7731C18.8531 17.8709 18.8677 17.9728 18.8859 18.0706C18.9042 18.1684 18.9224 18.258 18.9479 18.3477C18.9698 18.4333 18.9953 18.5148 19.0245 18.6004C19.0281 18.6085 19.0318 18.6208 19.0354 18.6289L19.0391 18.6371C19.0755 18.7267 19.112 18.8164 19.1521 18.902L19.1557 18.9101C19.1958 18.9916 19.2396 19.0772 19.287 19.1546L19.2906 19.1587C19.338 19.2361 19.3854 19.3095 19.4401 19.3829C19.4948 19.4562 19.5495 19.5255 19.6115 19.5948C19.6734 19.6641 19.7391 19.7293 19.8047 19.7863C19.8703 19.8434 19.9359 19.9004 20.0052 19.9493L20.0125 19.9534C20.0781 20.0023 20.151 20.0512 20.2276 20.0961C20.3078 20.145 20.388 20.1857 20.4719 20.2265L20.4755 20.2306C20.5557 20.2672 20.6359 20.2998 20.7161 20.3284C20.8 20.3569 20.8839 20.3813 20.9714 20.3976C21.0625 20.418 21.15 20.4303 21.2411 20.4425C21.325 20.4506 21.4161 20.4547 21.5109 20.4547C21.6057 20.4547 21.6969 20.4506 21.7844 20.4384C21.8719 20.4303 21.963 20.4139 22.0505 20.3936C22.138 20.3732 22.2219 20.3528 22.2984 20.3243C22.3714 20.2998 22.4443 20.2713 22.5135 20.2387C22.5245 20.2306 22.5318 20.2306 22.5391 20.2265L22.5464 20.2224C22.6266 20.1816 22.7068 20.1409 22.7833 20.0961L22.7906 20.092C22.8635 20.0472 22.9401 19.9983 23.0094 19.9453L23.013 19.9412C23.0823 19.8882 23.1479 19.8352 23.2135 19.7782C23.2828 19.717 23.3448 19.6559 23.4068 19.5907C23.4651 19.5255 23.5198 19.4562 23.5745 19.3829L23.5818 19.3747C23.6328 19.3054 23.6802 19.2321 23.7276 19.1546H23.7313C23.775 19.0813 23.8188 18.9998 23.8589 18.9142C23.9026 18.8245 23.9391 18.7349 23.9755 18.6411L23.9792 18.6371C24.012 18.5474 24.0411 18.4577 24.0667 18.3681C24.0922 18.2743 24.1141 18.1806 24.1286 18.0828C24.1469 17.9809 24.1578 17.8831 24.1688 17.7812C24.176 17.6875 24.1797 17.5856 24.1797 17.4796C24.1797 17.3737 24.176 17.2718 24.1651 17.174C24.1578 17.0762 24.1432 16.9743 24.125 16.8765C24.1068 16.7786 24.0885 16.6849 24.063 16.5993C24.0411 16.5178 24.0156 16.4363 23.9865 16.3548C23.9792 16.3426 23.9792 16.3344 23.9755 16.3263L23.9719 16.3181C23.9354 16.2285 23.899 16.1388 23.8589 16.0532L23.8552 16.0451C23.8151 15.9595 23.7714 15.878 23.724 15.8005L23.7203 15.7965C23.6729 15.719 23.6255 15.6457 23.5708 15.5723C23.5161 15.499 23.4615 15.4297 23.3995 15.3604C23.3375 15.2911 23.2719 15.2259 23.2063 15.1688C23.1406 15.1118 23.075 15.0547 23.0057 15.0058L22.9984 15.0017C22.9328 14.9488 22.8599 14.9039 22.7833 14.8591C22.7031 14.8102 22.6229 14.7694 22.5391 14.7287L22.5354 14.7246C22.4552 14.6879 22.375 14.6553 22.2948 14.6268C22.2109 14.5983 22.1271 14.5738 22.0396 14.5575C22.0286 14.5494 22.0177 14.5453 22.0068 14.5371ZM6.12552 14.2437C6.8 10.2375 8.69948 6.71227 11.3682 4.17326C14.1026 1.56905 17.6427 0 21.5073 0C24.9052 0 28.0479 1.21041 30.6146 3.26851C33.2469 5.3796 35.274 8.38321 36.3349 11.884L35.376 12.2467L34.4172 12.6095C34.3917 12.5198 34.3625 12.4301 34.3333 12.3446C33.3891 9.4143 31.6609 6.89567 29.4333 5.11062C27.1984 3.3215 24.4604 2.27003 21.5036 2.27003C18.1312 2.27003 15.0469 3.63531 12.6734 5.89311C10.4422 8.01642 8.83073 10.9304 8.18542 14.2478H10.2599L7.13177 18.5066L4 14.2437H6.12552Z" fill="#639CD9"/>
</g>
<defs>
<filter id="filter0_d_8_125" x="0" y="0" width="43" height="43" filterUnits="userSpaceOnUse" color-interpolation-filters="sRGB">
<feFlood flood-opacity="0" result="BackgroundImageFix"/>
<feColorMatrix in="SourceAlpha" type="matrix" values="0 0 0 0 0 0 0 0 0 0 0 0 0 0 0 0 0 0 127 0" result="hardAlpha"/>
<feOffset dy="4"/>
<feGaussianBlur stdDeviation="2"/>
<feComposite in2="hardAlpha" operator="out"/>
<feColorMatrix type="matrix" values="0 0 0 0 0 0 0 0 0 0 0 0 0 0 0 0 0 0 0.25 0"/>
<feBlend mode="normal" in2="BackgroundImageFix" result="effect1_dropShadow_8_125"/>
<feBlend mode="normal" in="SourceGraphic" in2="effect1_dropShadow_8_125" result="shape"/>
</filter>
</defs>
</svg>
