<svg width="35" height="35" viewBox="0 0 35 35" fill="none" xmlns="http://www.w3.org/2000/svg">
<path d="M32.8891 20.7563C32.2073 24.7991 30.2786 28.3529 27.5698 30.9001C24.8464 33.4595 21.3354 35 17.5073 35C13.9089 35 10.5911 33.6388 7.94427 31.3525C5.24271 29.0172 3.24115 25.7161 2.35521 21.9096L4.30937 21.3432C5.07865 24.6565 6.82135 27.5338 9.17656 29.5674C11.4771 31.5562 14.3646 32.7381 17.5036 32.7381C20.8469 32.7381 23.9021 31.3973 26.2682 29.1762C28.5323 27.0488 30.1693 24.1104 30.8219 20.7604H28.7365L31.8682 16.4974L35 20.7563H32.8891ZM22.3672 11.0975C22.349 11.0771 22.3344 11.0649 22.3198 11.0526C22.3052 11.0404 22.287 11.0323 22.2724 11.0241L22.2688 11.02C22.2578 11.0119 22.2432 11.0078 22.225 11.0037C22.2104 11.0037 22.1922 11.0037 22.1703 11.0037C22.1484 11.0037 22.1266 11.0037 22.1083 11.0078C22.0901 11.0119 22.0755 11.016 22.0646 11.0241L22.0573 11.0282C22.0464 11.0363 22.0318 11.0445 22.0172 11.0526C22.0026 11.0649 21.988 11.0771 21.9698 11.0975L21.124 12.043C21.0365 12.1408 20.9271 12.1938 20.8141 12.206C20.701 12.2182 20.5844 12.1856 20.4859 12.1082C20.4422 12.0756 20.3911 12.043 20.3401 12.0104C20.2781 11.9696 20.2271 11.937 20.1833 11.9126L20.176 11.9085C20.125 11.8759 20.0703 11.8433 20.0156 11.8147C19.9609 11.7821 19.9026 11.7536 19.8479 11.7292L19.8443 11.7251C19.7932 11.6966 19.7349 11.668 19.6729 11.6395C19.6109 11.611 19.5526 11.5865 19.4943 11.5621L19.4833 11.558C19.4104 11.5254 19.3193 11.4928 19.2245 11.4561L19.1297 11.4113C19.0276 11.3746 18.9438 11.3012 18.8891 11.2116C18.8271 11.1178 18.7943 10.9997 18.7943 10.8815V9.43468C18.7943 9.41022 18.7943 9.38577 18.7906 9.36539V9.36132C18.787 9.34502 18.7833 9.32871 18.7797 9.31241C18.7724 9.29611 18.7651 9.27573 18.7542 9.25943C18.7432 9.24313 18.7323 9.22683 18.7177 9.21053C18.7031 9.19422 18.6885 9.182 18.674 9.16977C18.6594 9.15755 18.6448 9.14939 18.6266 9.14124C18.612 9.13309 18.5974 9.12902 18.5792 9.12494C18.5609 9.12087 18.5427 9.12087 18.5172 9.12087H16.8948C16.8729 9.12087 16.8547 9.12087 16.8365 9.12494C16.8219 9.12902 16.8073 9.13309 16.7927 9.14124L16.7854 9.14532C16.7708 9.15347 16.7563 9.16162 16.7453 9.16977C16.7307 9.182 16.7125 9.19423 16.6979 9.2146C16.6833 9.2309 16.6724 9.24721 16.6615 9.26351C16.6505 9.27981 16.6432 9.29611 16.6359 9.31649C16.6286 9.33279 16.625 9.34909 16.6214 9.36539C16.6177 9.38577 16.6177 9.40615 16.6177 9.43468V10.7551C16.6177 10.8896 16.574 11.016 16.501 11.1138C16.4281 11.2116 16.3224 11.2849 16.2057 11.3053C16.1073 11.3298 16.0161 11.3583 15.9323 11.3868L15.8521 11.4113C15.7391 11.448 15.6224 11.4969 15.5057 11.5458L15.4948 11.5498C15.4875 11.5539 15.4802 11.5539 15.4693 11.558C15.4073 11.5824 15.3453 11.615 15.2797 11.6476C15.2359 11.668 15.1958 11.6884 15.1521 11.7088C15.0391 11.7658 14.9333 11.827 14.8385 11.884C14.7401 11.9452 14.6307 11.9655 14.5286 11.9492C14.4229 11.9329 14.3208 11.8799 14.2443 11.7903C13.9526 11.4398 13.6099 11.0893 13.3036 10.747C13.2891 10.7307 13.2708 10.7144 13.2563 10.7021L13.249 10.6981C13.2417 10.694 13.2344 10.6899 13.2307 10.6858C13.2234 10.6818 13.2198 10.6818 13.2125 10.6777C13.2052 10.6736 13.1906 10.6695 13.1797 10.6655C13.1651 10.6614 13.1432 10.6614 13.125 10.6614C13.1031 10.6614 13.0849 10.6614 13.0667 10.6655H13.063C13.0484 10.6695 13.0339 10.6736 13.0229 10.6777L13.0193 10.6818C13.0047 10.6899 12.9901 10.6981 12.9755 10.7103C12.9573 10.7266 12.9391 10.7429 12.9172 10.7674L11.7906 12.0348C11.7724 12.0552 11.7542 12.0756 11.7432 12.0919C11.7323 12.1082 11.725 12.1245 11.7177 12.1408L11.7141 12.1489C11.7104 12.1612 11.7068 12.1775 11.7031 12.1938C11.6995 12.2141 11.6995 12.2345 11.6995 12.259C11.6995 12.3079 11.7068 12.3446 11.7177 12.3772C11.7323 12.4098 11.7542 12.4464 11.787 12.4831L12.6328 13.4286C12.7203 13.5264 12.7677 13.6487 12.7786 13.775C12.7896 13.9014 12.7604 14.0318 12.6911 14.1418C12.662 14.1948 12.6328 14.2478 12.6036 14.3048C12.5672 14.3741 12.538 14.4312 12.5161 14.4801L12.5125 14.4882C12.4833 14.5453 12.4542 14.6064 12.4286 14.6676C12.3995 14.7287 12.3776 14.7939 12.3521 14.855L12.3484 14.8591C12.3229 14.9162 12.2974 14.9814 12.2719 15.0507C12.2464 15.1199 12.2245 15.1851 12.2026 15.2503L12.199 15.2626C12.1698 15.3441 12.1406 15.446 12.1078 15.5519L12.075 15.6579C12.0422 15.7761 11.9766 15.8698 11.8927 15.935C11.8089 16.0043 11.7031 16.041 11.5974 16.041H10.3031C10.2776 16.041 10.2594 16.041 10.2411 16.0451C10.2266 16.0491 10.2083 16.0532 10.1938 16.0614C10.1792 16.0695 10.1609 16.0777 10.1464 16.0899C10.1318 16.1021 10.1172 16.1143 10.1026 16.1306C10.088 16.1469 10.0771 16.1633 10.0661 16.1796C10.0552 16.1959 10.0479 16.2122 10.0406 16.2285C10.0333 16.2488 10.0297 16.2651 10.026 16.2855C10.0224 16.3059 10.0224 16.3263 10.0224 16.3548V18.1684C10.0224 18.2091 10.0297 18.2499 10.0406 18.2784C10.0479 18.2947 10.0552 18.3151 10.0698 18.3355C10.0807 18.3558 10.0953 18.3721 10.1099 18.3884C10.1245 18.4048 10.1391 18.417 10.1536 18.4292C10.1682 18.4414 10.1828 18.4496 10.201 18.4577C10.2156 18.4659 10.2302 18.47 10.2448 18.474H10.2484C10.2667 18.4781 10.2849 18.4781 10.3068 18.4781H11.488C11.6083 18.4781 11.7214 18.527 11.8089 18.6085C11.8964 18.69 11.962 18.8082 11.9802 18.9386C12.0021 19.0487 12.0276 19.1506 12.0531 19.2443L12.075 19.3299C12.0896 19.3869 12.1078 19.4521 12.1297 19.5173C12.1552 19.5948 12.1734 19.6559 12.1953 19.713C12.2172 19.7782 12.2427 19.8393 12.2646 19.9086C12.2865 19.9738 12.3156 20.039 12.3411 20.1124C12.3776 20.2061 12.4141 20.2917 12.4505 20.3691L12.5089 20.4995C12.5563 20.6055 12.5708 20.7237 12.5562 20.8337C12.5417 20.9519 12.4906 21.0579 12.4141 21.1435C12.126 21.441 11.7505 21.8526 11.488 22.1745C11.4698 22.1949 11.4552 22.2112 11.4443 22.2275C11.437 22.2398 11.4297 22.2479 11.4297 22.2561C11.426 22.2642 11.426 22.2683 11.4224 22.2764C11.4187 22.2846 11.4151 22.2968 11.4115 22.3131L11.4078 22.3213C11.4042 22.3376 11.4042 22.3539 11.4042 22.3742C11.4042 22.3987 11.4042 22.4191 11.4078 22.4395V22.4435C11.4115 22.4598 11.4151 22.4721 11.4187 22.4884L11.4224 22.4965C11.426 22.5087 11.437 22.525 11.4479 22.5413C11.4625 22.5617 11.4771 22.5862 11.499 22.6106L12.6146 23.8781C12.6328 23.8944 12.651 23.9107 12.6656 23.9229C12.6802 23.9351 12.6984 23.9433 12.713 23.9514C12.7312 23.9596 12.7458 23.9637 12.7641 23.9677C12.7823 23.9718 12.8042 23.9718 12.826 23.9718C12.8516 23.9718 12.8734 23.9718 12.8917 23.9677H12.8953C12.9099 23.9637 12.9245 23.9596 12.9354 23.9555C12.95 23.9474 12.9682 23.9392 12.9865 23.927C13.001 23.9148 13.0156 23.9025 13.0339 23.8862L13.8651 22.9407C13.949 22.8429 14.062 22.7859 14.175 22.7736C14.2917 22.7614 14.4083 22.794 14.5068 22.8714C14.5542 22.9041 14.6016 22.9367 14.6526 22.9693C14.7146 23.01 14.7656 23.0426 14.8094 23.0671L14.8167 23.0711C14.9224 23.1404 15.0318 23.1975 15.1448 23.2505L15.1557 23.2545C15.2068 23.2831 15.2615 23.3075 15.3198 23.3361C15.3818 23.3646 15.4401 23.389 15.4984 23.4135L15.5094 23.4176C15.5823 23.4502 15.6734 23.4868 15.7682 23.5194L15.8594 23.5561C15.9651 23.5928 16.049 23.6662 16.1073 23.7599C16.1693 23.8536 16.2021 23.9718 16.2021 24.09V25.5368C16.2021 25.5857 16.2094 25.6265 16.2203 25.6631C16.2276 25.6794 16.2349 25.6957 16.2458 25.712C16.2568 25.7283 16.2677 25.7446 16.2823 25.7609C16.3115 25.7935 16.3406 25.8139 16.3698 25.8302C16.4026 25.8465 16.4391 25.8506 16.4792 25.8506H18.1016C18.138 25.8506 18.1745 25.8425 18.2 25.8302C18.2146 25.8221 18.2328 25.8139 18.251 25.7976C18.2656 25.7854 18.2839 25.7732 18.2984 25.7528C18.313 25.7365 18.324 25.7202 18.3349 25.7039C18.3458 25.6876 18.3531 25.6713 18.3604 25.6509C18.3677 25.6346 18.3714 25.6183 18.375 25.602C18.3786 25.5816 18.3786 25.5612 18.3786 25.5327V24.2123C18.3786 24.0778 18.4224 23.9514 18.4953 23.8536C18.5682 23.7558 18.674 23.6825 18.7906 23.658C18.8891 23.6336 18.9802 23.605 19.0641 23.5765L19.1406 23.552C19.2536 23.5154 19.3703 23.4665 19.487 23.4176C19.6 23.3687 19.7167 23.3116 19.8406 23.2505C19.9245 23.2097 20.001 23.169 20.0703 23.1282L20.187 23.063C20.2818 23.01 20.3875 22.9937 20.4859 23.01C20.5917 23.0263 20.6865 23.0834 20.763 23.169C21.0292 23.4909 21.3974 23.9107 21.6854 24.2041C21.7036 24.2245 21.7182 24.2408 21.7328 24.253C21.7438 24.2612 21.751 24.2693 21.7583 24.2693C21.7656 24.2734 21.7693 24.2734 21.7766 24.2775C21.7839 24.2816 21.7948 24.2856 21.8094 24.2897C21.8276 24.2938 21.8458 24.2938 21.8714 24.2938C21.8932 24.2938 21.9151 24.2938 21.9333 24.2897C21.9479 24.2856 21.9589 24.2816 21.9661 24.2775L21.9734 24.2734C21.9844 24.2653 21.999 24.2571 22.0099 24.249C22.0245 24.2367 22.0391 24.2204 22.0536 24.2082C22.0536 24.2082 23.1036 23.0508 23.2021 22.9407C23.2167 22.9204 23.2313 22.9 23.2422 22.8837C23.2531 22.8674 23.2604 22.847 23.2677 22.8307C23.275 22.8103 23.2786 22.794 23.2823 22.7736C23.2859 22.7533 23.2859 22.7288 23.2859 22.7044C23.2859 22.6554 23.2786 22.6106 23.2677 22.5821C23.2604 22.5658 23.2531 22.5454 23.2422 22.525C23.2313 22.5087 23.2203 22.4924 23.2057 22.4721L22.3599 21.5429C22.2724 21.4491 22.2214 21.3228 22.2104 21.1964C22.1995 21.066 22.2286 20.9356 22.2979 20.8256C22.3271 20.7726 22.3563 20.7196 22.3854 20.6626C22.4182 20.6014 22.4474 20.5403 22.4729 20.4873L22.4766 20.4792C22.5385 20.361 22.5896 20.2387 22.637 20.1124L22.6406 20.1001C22.6661 20.0431 22.688 19.982 22.7135 19.9167C22.7391 19.8475 22.7609 19.7823 22.7828 19.717L22.7865 19.7048C22.8156 19.6233 22.8448 19.5214 22.8776 19.4155L22.9104 19.3095C22.9432 19.1913 23.0089 19.0976 23.0927 19.0324C23.1766 18.9631 23.2823 18.9264 23.388 18.9264H24.6823C24.726 18.9264 24.7625 18.9183 24.7953 18.906C24.8099 18.8979 24.8245 18.8897 24.8391 18.8775C24.8536 18.8653 24.8682 18.8531 24.8828 18.8368C24.8974 18.8204 24.9083 18.8041 24.9193 18.7878C24.9302 18.7715 24.9375 18.7552 24.9448 18.7349C24.9521 18.7186 24.9557 18.7023 24.9594 18.686C24.963 18.6656 24.963 18.6452 24.963 18.6167V16.8031C24.963 16.7786 24.963 16.7583 24.9594 16.7379C24.9557 16.7216 24.9521 16.7053 24.9484 16.689L24.9448 16.6808C24.9375 16.6645 24.9302 16.6482 24.9193 16.6319L24.9156 16.6238C24.9047 16.6075 24.8937 16.5952 24.8792 16.5789C24.8646 16.5626 24.85 16.5504 24.8354 16.5382C24.8208 16.526 24.8062 16.5178 24.788 16.5097C24.7734 16.5015 24.7589 16.4974 24.7443 16.4934C24.726 16.4893 24.7078 16.4893 24.6823 16.4893H23.501C23.3771 16.4893 23.2641 16.4363 23.1766 16.3548C23.0891 16.2692 23.0271 16.1551 23.0052 16.0247C22.976 15.8983 22.9469 15.772 22.9141 15.6457C22.8995 15.5927 22.8813 15.5275 22.8594 15.4541C22.8375 15.3848 22.8156 15.3196 22.7938 15.2544L22.7901 15.2422C22.7865 15.234 22.7828 15.2218 22.7828 15.2096C22.7464 15.1036 22.7026 14.9936 22.6625 14.8876L22.6479 14.851C22.6005 14.7287 22.5495 14.6146 22.4911 14.5005L22.4875 14.4923C22.4365 14.3823 22.4182 14.2641 22.4328 14.15C22.4474 14.0318 22.4948 13.9177 22.575 13.8321C22.8849 13.4816 23.1948 13.127 23.5083 12.7806C23.5266 12.7602 23.5411 12.7439 23.5521 12.7276L23.5557 12.7195C23.5594 12.7113 23.563 12.7032 23.5667 12.6991C23.5703 12.691 23.5703 12.6869 23.574 12.6787C23.5776 12.6706 23.5813 12.6584 23.5849 12.6421C23.5885 12.6258 23.5885 12.6013 23.5885 12.5809C23.5885 12.5565 23.5885 12.5361 23.5849 12.5157V12.5116C23.5813 12.4953 23.5776 12.4831 23.574 12.4668L23.5703 12.4627C23.563 12.4464 23.5557 12.4301 23.5448 12.4138C23.5302 12.3935 23.5156 12.3731 23.4938 12.3486L22.3672 11.0975ZM22.6625 9.98486C22.7391 10.0215 22.812 10.0623 22.8813 10.1153C22.9505 10.1683 23.0161 10.2294 23.0781 10.2987L24.2193 11.5743C24.2812 11.6436 24.3359 11.7169 24.3833 11.7944C24.4307 11.8718 24.4708 11.9533 24.5 12.0389V12.043C24.5328 12.1286 24.5583 12.2141 24.5729 12.3079C24.5911 12.4016 24.5984 12.4953 24.5984 12.5891C24.5984 12.6828 24.5911 12.7806 24.5729 12.8744C24.5547 12.9681 24.5292 13.0578 24.4964 13.1433C24.4635 13.2289 24.4234 13.3064 24.3724 13.3838C24.325 13.4612 24.2703 13.5305 24.2083 13.5957L23.5521 14.3456C23.5594 14.366 23.5703 14.3864 23.5776 14.4027C23.6286 14.5249 23.676 14.6513 23.7198 14.7735L23.7344 14.8143C23.7453 14.8306 23.749 14.851 23.7526 14.8713V14.8795C23.7745 14.9447 23.7964 15.014 23.8182 15.0833C23.8401 15.1566 23.8656 15.2381 23.8875 15.3237C23.8911 15.34 23.8984 15.3563 23.9021 15.3726H24.7005C24.7844 15.3726 24.8682 15.3808 24.9521 15.4011C25.0359 15.4174 25.1161 15.446 25.1927 15.4827C25.2693 15.5193 25.3422 15.5601 25.4115 15.6171C25.4807 15.6701 25.5427 15.7313 25.6047 15.7965L25.6156 15.8087L25.6229 15.8209C25.6776 15.8861 25.7323 15.9595 25.776 16.0328C25.8234 16.1103 25.8599 16.1918 25.8891 16.2733C25.9219 16.3589 25.9438 16.4485 25.962 16.5382C25.9766 16.6279 25.9875 16.7175 25.9875 16.8112V18.6248C25.9875 18.7226 25.9802 18.8164 25.962 18.906C25.9474 18.9957 25.9219 19.0854 25.8927 19.1709C25.8599 19.2565 25.8234 19.338 25.776 19.4155C25.7286 19.4929 25.674 19.5663 25.612 19.6355C25.55 19.7048 25.4844 19.766 25.4151 19.8189C25.3458 19.8719 25.2729 19.9167 25.1964 19.9493C25.1198 19.982 25.0432 20.0105 24.9594 20.0268C24.8755 20.0431 24.7917 20.0553 24.7042 20.0553H23.7672C23.7599 20.0798 23.7526 20.1001 23.7453 20.1246C23.7016 20.2509 23.6505 20.3813 23.5995 20.5118C23.574 20.5729 23.5484 20.6462 23.5193 20.7033C23.4719 20.8133 23.4281 20.9193 23.3771 21.0253L23.3589 21.0619C23.5557 21.2779 23.7563 21.4939 23.9495 21.714C24.0078 21.7833 24.0589 21.8526 24.1026 21.93C24.15 22.0075 24.1865 22.089 24.2156 22.1745C24.2448 22.2561 24.2667 22.3457 24.2849 22.4354C24.2995 22.5291 24.3068 22.6228 24.3068 22.7125C24.3068 22.8062 24.2995 22.9 24.2849 22.9896C24.2703 23.0793 24.2484 23.169 24.2156 23.2505C24.1865 23.332 24.15 23.4135 24.1063 23.4909C24.0661 23.5643 24.0151 23.6376 23.9604 23.7028C23.9458 23.7273 23.9349 23.7436 23.913 23.7558L22.7974 24.9866C22.7391 25.0559 22.6734 25.1211 22.6005 25.1741C22.5313 25.2271 22.4583 25.2719 22.3818 25.3086H22.3781C22.3052 25.3452 22.225 25.3697 22.1448 25.3901C22.0609 25.4105 21.9734 25.4186 21.8859 25.4186C21.8021 25.4186 21.7146 25.4105 21.6307 25.3901C21.5469 25.3697 21.4667 25.3412 21.3865 25.3045C21.3099 25.2678 21.2333 25.223 21.1641 25.1659C21.0984 25.1129 21.0328 25.0518 20.9745 24.9866L20.3146 24.249L20.2599 24.2775C20.1359 24.3386 20.001 24.3997 19.8589 24.465L19.8479 24.469C19.7823 24.4976 19.7167 24.522 19.651 24.5505C19.5745 24.5791 19.5016 24.6076 19.4359 24.628L19.3958 24.6443V25.5368C19.3958 25.6305 19.3885 25.7243 19.3703 25.818C19.3557 25.9117 19.3302 26.0014 19.2974 26.087C19.2646 26.1726 19.2281 26.2541 19.1771 26.3315C19.1297 26.4089 19.075 26.4782 19.0167 26.5475L18.9984 26.5679C18.9401 26.629 18.8745 26.6861 18.8089 26.735C18.7396 26.7839 18.6703 26.8287 18.5974 26.8654C18.5208 26.9021 18.4406 26.9265 18.3604 26.9469C18.2802 26.9632 18.2 26.9754 18.1161 26.9754H16.4938C16.3151 26.9754 16.151 26.9388 15.9979 26.8695C15.8448 26.8002 15.7099 26.6942 15.5859 26.5557C15.524 26.4864 15.4693 26.413 15.4219 26.3356C15.3745 26.2582 15.3344 26.1766 15.3052 26.0911C15.276 26.0055 15.2505 25.9199 15.2359 25.8262C15.2214 25.7324 15.2104 25.6387 15.2104 25.5409V24.4935C15.1885 24.4853 15.1703 24.4772 15.1484 24.469C15.0318 24.4201 14.9187 24.3631 14.8021 24.306C14.7437 24.2775 14.6891 24.249 14.6344 24.2163C14.5359 24.1634 14.4375 24.1145 14.3427 24.0574L14.3099 24.0452C14.1167 24.2653 13.9234 24.4894 13.7266 24.7054C13.6646 24.7706 13.6026 24.8277 13.5333 24.8766C13.4641 24.9296 13.3911 24.9703 13.3146 25.0029C13.2417 25.0355 13.1615 25.06 13.0813 25.0803C12.9974 25.0966 12.9135 25.1048 12.8333 25.1048C12.7531 25.1048 12.6656 25.0966 12.5854 25.0803C12.5052 25.064 12.425 25.0396 12.3521 25.0029C12.2792 24.9703 12.2063 24.9296 12.137 24.8806L12.126 24.8725C12.0604 24.8277 12.0021 24.7747 11.9474 24.7176C11.9255 24.7013 11.9109 24.6891 11.9 24.6646L10.7917 23.4094C10.7297 23.3401 10.675 23.2668 10.6276 23.1893C10.5802 23.1119 10.5401 23.0304 10.5109 22.9448V22.9407C10.4781 22.8551 10.4526 22.7696 10.438 22.6799C10.4198 22.5862 10.4125 22.4924 10.4125 22.3946C10.4125 22.3009 10.4198 22.2031 10.438 22.1093C10.4563 22.0156 10.4818 21.9259 10.5146 21.8404C10.5474 21.7548 10.5875 21.6773 10.6385 21.5999C10.6859 21.5265 10.7406 21.4532 10.799 21.3921L11.4589 20.6544L11.4333 20.5933C11.4042 20.5199 11.375 20.4466 11.3495 20.3773L11.3458 20.3691C11.3203 20.2958 11.2911 20.2224 11.2656 20.145L11.262 20.1327C11.2365 20.0594 11.2146 19.986 11.1891 19.9127C11.1635 19.8271 11.138 19.7456 11.1198 19.6722C11.1161 19.6559 11.1125 19.6437 11.1089 19.6274H10.3104C10.2266 19.6274 10.1427 19.6192 10.0589 19.5989C9.975 19.5826 9.89479 19.554 9.81823 19.5173C9.74167 19.4807 9.66875 19.4358 9.59948 19.3829C9.53021 19.3299 9.46823 19.2687 9.40625 19.2035L9.39531 19.1913C9.33698 19.122 9.28594 19.0487 9.23854 18.9712C9.19479 18.8938 9.15469 18.8164 9.12188 18.7349C9.08906 18.6493 9.06719 18.5596 9.04896 18.47C9.03438 18.3803 9.02344 18.2906 9.02344 18.1969V16.3833C9.02344 16.2855 9.03073 16.1918 9.04896 16.1021C9.06354 16.0125 9.08906 15.9228 9.11823 15.8372C9.15104 15.7516 9.1875 15.6701 9.2349 15.5927C9.28229 15.5153 9.33698 15.4419 9.39896 15.3726C9.52292 15.234 9.66146 15.1281 9.81458 15.0588C9.89115 15.0262 9.96771 14.9977 10.0516 14.9814C10.1354 14.9651 10.2193 14.9528 10.3068 14.9528H11.2438C11.251 14.9284 11.2583 14.908 11.2656 14.8836C11.3094 14.7531 11.3604 14.6268 11.4115 14.4964C11.437 14.4312 11.4625 14.3701 11.4917 14.3048C11.5391 14.1948 11.5865 14.0848 11.6339 13.9788L11.6521 13.9421L11.087 13.3104C11.0286 13.2452 10.974 13.1719 10.9266 13.0944C10.8792 13.017 10.8391 12.9355 10.8026 12.8499C10.7698 12.7643 10.7443 12.6747 10.726 12.5809C10.7078 12.4872 10.7005 12.3935 10.7005 12.2997C10.7005 12.206 10.7078 12.1082 10.726 12.0144C10.7443 11.9207 10.7698 11.831 10.8026 11.7455C10.8354 11.6558 10.8755 11.5743 10.9229 11.5009C10.9703 11.4235 11.025 11.3542 11.087 11.2849C11.4625 10.8652 11.849 10.4006 12.2354 10.0012C12.2938 9.93596 12.3594 9.87483 12.425 9.82592C12.4943 9.77294 12.5672 9.72811 12.6438 9.69551H12.6474C12.724 9.65883 12.8005 9.6303 12.8844 9.614C12.9682 9.59362 13.0521 9.58547 13.1359 9.58547C13.2198 9.58547 13.3073 9.59362 13.3911 9.614C13.475 9.63437 13.5552 9.6629 13.6318 9.69958C13.7083 9.73626 13.7812 9.78516 13.8469 9.83815L13.8542 9.8463C13.9198 9.89928 13.9781 9.95634 14.0365 10.0215L14.7073 10.7551C14.7219 10.747 14.7365 10.7388 14.762 10.7266L14.8057 10.7021C14.9078 10.6532 15.0135 10.6003 15.1193 10.5514C15.1448 10.531 15.163 10.5269 15.1885 10.5228C15.2469 10.4984 15.3089 10.4739 15.3708 10.4495C15.4474 10.4209 15.5203 10.3924 15.5859 10.372L15.626 10.3557V9.45505C15.626 9.36132 15.6333 9.26758 15.6516 9.17385C15.6661 9.08011 15.6917 8.99045 15.7245 8.90487C15.7573 8.81928 15.7937 8.73777 15.8448 8.66034C15.8922 8.58291 15.9469 8.51362 16.0052 8.44434L16.0198 8.43211C16.0818 8.36691 16.1474 8.30985 16.213 8.25687C16.2823 8.20796 16.3516 8.16313 16.4245 8.12646C16.501 8.08978 16.5813 8.06532 16.6615 8.04495C16.7417 8.02864 16.8219 8.01642 16.9057 8.01642H18.5281C18.6156 8.01642 18.6995 8.02457 18.7797 8.04495C18.8599 8.06125 18.9401 8.08978 19.0167 8.12238C19.0932 8.15498 19.1661 8.19981 19.2354 8.25279C19.3047 8.30578 19.3703 8.36691 19.4359 8.43619L19.4396 8.44027C19.5016 8.50955 19.5563 8.58291 19.6036 8.66034C19.651 8.73777 19.6911 8.81928 19.7203 8.90487C19.7495 8.99045 19.775 9.07604 19.7896 9.16977C19.8042 9.26351 19.8151 9.35724 19.8151 9.45505V10.5024C19.837 10.5106 19.8552 10.5187 19.8771 10.5269C19.9464 10.5554 20.0156 10.584 20.0849 10.6206L20.0922 10.6247C20.1615 10.6573 20.2271 10.6899 20.2927 10.7266L20.3984 10.7837C20.4969 10.8366 20.5917 10.8855 20.6865 10.9426L20.7193 10.963L21.2844 10.3313C21.3427 10.2661 21.4083 10.2049 21.4776 10.152C21.5469 10.099 21.6198 10.0541 21.6964 10.0134C21.7729 9.97671 21.8531 9.94818 21.937 9.92781C22.0208 9.90743 22.1047 9.89928 22.1922 9.89928C22.276 9.89928 22.3635 9.90743 22.4438 9.92781C22.4984 9.94003 22.5531 9.95633 22.6078 9.97671C22.6224 9.97264 22.6406 9.97671 22.6625 9.98486ZM17.5 13.3634C17.6203 13.3634 17.7443 13.3716 17.8719 13.3838C17.9958 13.396 18.1161 13.4164 18.2328 13.4449C18.3495 13.4694 18.4661 13.5061 18.5865 13.5468C18.7031 13.5876 18.8198 13.6365 18.9328 13.6895L18.9401 13.6935C19.0495 13.7465 19.1589 13.8036 19.2609 13.8688C19.363 13.9299 19.4615 13.9992 19.5562 14.0766L19.5599 14.0807C19.7568 14.2274 19.9281 14.3904 20.0922 14.5697L20.0958 14.5738C20.1797 14.6676 20.2563 14.7654 20.3292 14.8632C20.4021 14.9651 20.4714 15.071 20.537 15.177L20.5443 15.1892C20.6063 15.2993 20.6682 15.4052 20.7193 15.5153C20.7776 15.6294 20.8286 15.7476 20.8797 15.8698C20.8833 15.878 20.887 15.8861 20.8906 15.8943C20.8943 15.9024 20.8979 15.9146 20.8979 15.9228C20.9891 16.1673 21.0547 16.4119 21.0948 16.6564C21.1167 16.7868 21.1349 16.9213 21.1495 17.0599C21.1604 17.1984 21.1677 17.337 21.1677 17.4755C21.1677 17.61 21.1604 17.7486 21.1495 17.8912C21.1385 18.0298 21.1203 18.1643 21.0948 18.2947C21.0729 18.4251 21.0401 18.5555 21.0036 18.69C20.9672 18.8204 20.9234 18.9509 20.876 19.0772L20.8724 19.0854C20.7776 19.3258 20.6646 19.5581 20.5333 19.7741L20.5297 19.7823C20.4641 19.8923 20.3948 19.9942 20.3255 20.092C20.2526 20.1898 20.176 20.2876 20.0922 20.3813L20.0885 20.3773C20.0047 20.471 19.9172 20.5566 19.8297 20.6381C19.7385 20.7237 19.6437 20.797 19.549 20.8704L19.538 20.8786C19.4396 20.9478 19.3448 21.0171 19.2464 21.0742C19.1443 21.1394 19.0385 21.1964 18.9292 21.2535L18.9255 21.2576C18.9109 21.2657 18.8964 21.2739 18.8781 21.2779C18.6594 21.3798 18.4443 21.4491 18.2219 21.498C18.1052 21.5225 17.9849 21.5429 17.8609 21.5592C17.737 21.5714 17.613 21.5795 17.4891 21.5795C17.3688 21.5795 17.2448 21.5714 17.1172 21.5592C16.9932 21.5469 16.8729 21.5265 16.7563 21.498C16.6396 21.4736 16.5229 21.4369 16.4026 21.3961C16.2859 21.3554 16.1693 21.3065 16.0563 21.2535L16.049 21.2494C15.8339 21.1435 15.626 21.0171 15.4328 20.8704L15.4255 20.8663C15.3271 20.793 15.2359 20.7155 15.1484 20.6381C15.0609 20.5566 14.9734 20.471 14.8896 20.3773L14.8859 20.3732C14.8021 20.2795 14.7255 20.1816 14.6526 20.0838C14.5797 19.982 14.5104 19.876 14.4448 19.77L14.4375 19.7578C14.3099 19.5418 14.1969 19.3136 14.1021 19.0772L14.0984 19.0731C14.0911 19.0568 14.0839 19.0405 14.0802 19.0201C14.0365 18.902 13.9964 18.7838 13.9672 18.6656C13.9344 18.5433 13.9052 18.417 13.887 18.2906C13.8651 18.1602 13.8469 18.0257 13.8323 17.8872C13.8214 17.7486 13.8141 17.61 13.8141 17.4715C13.8141 17.337 13.8214 17.1984 13.8323 17.0558C13.8432 16.9172 13.8615 16.7827 13.887 16.6523C13.9089 16.5219 13.9417 16.3915 13.9781 16.257C14.0146 16.1266 14.0583 15.9962 14.1057 15.8698L14.1094 15.8617C14.1568 15.7435 14.2078 15.6253 14.2625 15.5112C14.3208 15.393 14.3828 15.283 14.4484 15.1729L14.4521 15.1648C14.5833 14.9447 14.7292 14.7531 14.8896 14.5697L14.8932 14.5657C14.9771 14.4719 15.0646 14.3864 15.1521 14.3048C15.2432 14.2233 15.338 14.1459 15.4328 14.0725L15.4438 14.0644C15.5422 13.9951 15.637 13.9258 15.7354 13.8688C15.8375 13.8036 15.9432 13.7465 16.0526 13.6895L16.0563 13.6854C16.0708 13.6772 16.0854 13.6691 16.1036 13.665C16.2094 13.6161 16.3115 13.5753 16.4208 13.5387C16.5339 13.502 16.6432 13.4694 16.7599 13.4449C16.8766 13.4205 16.9969 13.4001 17.1208 13.3838C17.2557 13.3716 17.376 13.3634 17.5 13.3634ZM18.0068 14.5371C17.9266 14.5208 17.85 14.5086 17.7698 14.5005C17.6859 14.4923 17.5948 14.4842 17.5 14.4842C17.4052 14.4842 17.3141 14.4882 17.2266 14.5005C17.1391 14.5086 17.0479 14.5249 16.9604 14.5453C16.8729 14.5657 16.7891 14.5861 16.7125 14.6146C16.6396 14.639 16.5667 14.6676 16.4938 14.7002C16.4865 14.7042 16.4755 14.7083 16.4682 14.7124L16.4609 14.7165C16.3807 14.7572 16.3005 14.798 16.224 14.8428L16.2167 14.8469C16.1401 14.8917 16.0672 14.9406 15.9979 14.9936L15.9943 14.9977C15.925 15.0507 15.8594 15.1036 15.7938 15.1607C15.7245 15.2218 15.6625 15.283 15.6005 15.3482C15.5422 15.4134 15.4875 15.4826 15.4328 15.556L15.4255 15.5642C15.3745 15.6334 15.3271 15.7068 15.2797 15.7842L15.276 15.7924C15.2323 15.8657 15.1885 15.9473 15.1484 16.0328C15.1047 16.1225 15.0682 16.2122 15.0318 16.3059V16.31C14.999 16.3996 14.9698 16.4893 14.9443 16.5789C14.9188 16.6727 14.8969 16.7664 14.8823 16.8642C14.8641 16.9661 14.8531 17.0639 14.8422 17.1658C14.8349 17.2595 14.8313 17.3614 14.8313 17.4674C14.8313 17.5734 14.8349 17.6752 14.8458 17.7731C14.8531 17.8709 14.8677 17.9728 14.8859 18.0706C14.9042 18.1684 14.9224 18.258 14.9479 18.3477C14.9698 18.4333 14.9953 18.5148 15.0245 18.6004C15.0281 18.6085 15.0318 18.6208 15.0354 18.6289L15.0391 18.6371C15.0755 18.7267 15.112 18.8164 15.1521 18.902L15.1557 18.9101C15.1958 18.9916 15.2396 19.0772 15.287 19.1546L15.2906 19.1587C15.338 19.2361 15.3854 19.3095 15.4401 19.3829C15.4948 19.4562 15.5495 19.5255 15.6115 19.5948C15.6734 19.6641 15.7391 19.7293 15.8047 19.7863C15.8703 19.8434 15.9359 19.9004 16.0052 19.9493L16.0125 19.9534C16.0781 20.0023 16.151 20.0512 16.2276 20.0961C16.3078 20.145 16.388 20.1857 16.4719 20.2265L16.4755 20.2306C16.5557 20.2672 16.6359 20.2998 16.7161 20.3284C16.8 20.3569 16.8839 20.3813 16.9714 20.3976C17.0625 20.418 17.15 20.4303 17.2411 20.4425C17.325 20.4506 17.4161 20.4547 17.5109 20.4547C17.6057 20.4547 17.6969 20.4506 17.7844 20.4384C17.8719 20.4303 17.963 20.4139 18.0505 20.3936C18.138 20.3732 18.2219 20.3528 18.2984 20.3243C18.3714 20.2998 18.4443 20.2713 18.5135 20.2387C18.5245 20.2306 18.5318 20.2306 18.5391 20.2265L18.5464 20.2224C18.6266 20.1816 18.7068 20.1409 18.7833 20.0961L18.7906 20.092C18.8635 20.0472 18.9401 19.9983 19.0094 19.9453L19.013 19.9412C19.0823 19.8882 19.1479 19.8352 19.2135 19.7782C19.2828 19.717 19.3448 19.6559 19.4068 19.5907C19.4651 19.5255 19.5198 19.4562 19.5745 19.3829L19.5818 19.3747C19.6328 19.3054 19.6802 19.2321 19.7276 19.1546H19.7313C19.775 19.0813 19.8188 18.9998 19.8589 18.9142C19.9026 18.8245 19.9391 18.7349 19.9755 18.6411L19.9792 18.6371C20.012 18.5474 20.0411 18.4577 20.0667 18.3681C20.0922 18.2743 20.1141 18.1806 20.1286 18.0828C20.1469 17.9809 20.1578 17.8831 20.1688 17.7812C20.176 17.6875 20.1797 17.5856 20.1797 17.4796C20.1797 17.3737 20.176 17.2718 20.1651 17.174C20.1578 17.0762 20.1432 16.9743 20.125 16.8765C20.1068 16.7786 20.0885 16.6849 20.063 16.5993C20.0411 16.5178 20.0156 16.4363 19.9865 16.3548C19.9792 16.3426 19.9792 16.3344 19.9755 16.3263L19.9719 16.3181C19.9354 16.2285 19.899 16.1388 19.8589 16.0532L19.8552 16.0451C19.8151 15.9595 19.7714 15.878 19.724 15.8005L19.7203 15.7965C19.6729 15.719 19.6255 15.6457 19.5708 15.5723C19.5161 15.499 19.4615 15.4297 19.3995 15.3604C19.3375 15.2911 19.2719 15.2259 19.2063 15.1688C19.1406 15.1118 19.075 15.0547 19.0057 15.0058L18.9984 15.0017C18.9328 14.9488 18.8599 14.9039 18.7833 14.8591C18.7031 14.8102 18.6229 14.7694 18.5391 14.7287L18.5354 14.7246C18.4552 14.6879 18.375 14.6553 18.2948 14.6268C18.2109 14.5983 18.1271 14.5738 18.0396 14.5575C18.0286 14.5494 18.0177 14.5453 18.0068 14.5371ZM2.12552 14.2437C2.8 10.2375 4.69948 6.71227 7.36823 4.17326C10.1026 1.56905 13.6427 0 17.5073 0C20.9052 0 24.0479 1.21041 26.6146 3.26851C29.2469 5.3796 31.274 8.38321 32.3349 11.884L31.376 12.2467L30.4172 12.6095C30.3917 12.5198 30.3625 12.4301 30.3333 12.3446C29.3891 9.4143 27.6609 6.89567 25.4333 5.11062C23.1984 3.3215 20.4604 2.27003 17.5036 2.27003C14.1312 2.27003 11.0469 3.63531 8.67344 5.89311C6.44219 8.01642 4.83073 10.9304 4.18542 14.2478H6.2599L3.13177 18.5066L0 14.2437H2.12552Z" fill="#639CD9"/>
</svg>
