<svg width="75" height="75" viewBox="0 0 75 75" fill="none" xmlns="http://www.w3.org/2000/svg">
<path d="M37.5 0C47.8535 0 57.2314 4.19832 64.0166 10.9836C70.8018 17.7689 75 27.147 75 37.5007C75 47.8545 70.8018 57.2311 64.0166 64.0164C57.2314 70.8017 47.8535 75 37.5 75C27.1465 75 17.7686 70.8017 10.9834 64.0164C4.19824 57.2311 0 47.8545 0 37.5007C0 27.147 4.19824 17.7689 10.9834 10.9836C17.7686 4.19832 27.1465 0 37.5 0ZM27.6973 24.6567H33.2695C34.0151 24.6567 34.623 25.2734 34.623 26.0103V48.9897C34.623 49.7266 34.0093 50.3418 33.2695 50.3418H27.6973C26.9604 50.3418 26.3452 49.7324 26.3452 48.9897V26.0103C26.3452 25.2647 26.9531 24.6567 27.6973 24.6567ZM41.7261 24.6567H47.3013C48.0454 24.6567 48.6533 25.272 48.6533 26.0103V48.9897C48.6533 49.7266 48.0396 50.3418 47.3013 50.3418H41.7261C40.9878 50.3418 40.374 49.7324 40.374 48.9897V26.0103C40.374 25.2647 40.9834 24.6567 41.7261 24.6567ZM60.4614 14.5389C54.5859 8.66472 46.4663 5.02891 37.5 5.02891C28.5337 5.02891 20.4141 8.66472 14.5386 14.5389C8.66455 20.4145 5.02881 28.5342 5.02881 37.5007C5.02881 46.4672 8.66455 54.5855 14.5386 60.4611C20.4141 66.3353 28.5337 69.9711 37.5 69.9711C46.4663 69.9711 54.5859 66.3353 60.4614 60.4611C66.3354 54.5855 69.9712 46.4672 69.9712 37.5007C69.9712 28.5342 66.3354 20.4145 60.4614 14.5389Z" fill="#639CD9"/>
</svg>
