<svg width="83" height="83" viewBox="0 0 83 83" fill="none" xmlns="http://www.w3.org/2000/svg">
<g filter="url(#filter0_d_67_6)">
<path d="M41.5 0C51.8535 0 61.2314 4.19832 68.0166 10.9836C74.8018 17.7689 79 27.147 79 37.5007C79 47.8545 74.8018 57.2311 68.0166 64.0164C61.2314 70.8017 51.8535 75 41.5 75C31.1465 75 21.7686 70.8017 14.9834 64.0164C8.19824 57.2311 4 47.8545 4 37.5007C4 27.147 8.19824 17.7689 14.9834 10.9836C21.7686 4.19832 31.1465 0 41.5 0ZM31.6973 24.6567H37.2695C38.0151 24.6567 38.623 25.2734 38.623 26.0103V48.9897C38.623 49.7266 38.0093 50.3418 37.2695 50.3418H31.6973C30.9604 50.3418 30.3452 49.7324 30.3452 48.9897V26.0103C30.3452 25.2647 30.9531 24.6567 31.6973 24.6567ZM45.7261 24.6567H51.3013C52.0454 24.6567 52.6533 25.272 52.6533 26.0103V48.9897C52.6533 49.7266 52.0396 50.3418 51.3013 50.3418H45.7261C44.9878 50.3418 44.374 49.7324 44.374 48.9897V26.0103C44.374 25.2647 44.9834 24.6567 45.7261 24.6567ZM64.4614 14.5389C58.5859 8.66472 50.4663 5.02891 41.5 5.02891C32.5337 5.02891 24.4141 8.66472 18.5386 14.5389C12.6646 20.4145 9.02881 28.5342 9.02881 37.5007C9.02881 46.4672 12.6646 54.5855 18.5386 60.4611C24.4141 66.3353 32.5337 69.9711 41.5 69.9711C50.4663 69.9711 58.5859 66.3353 64.4614 60.4611C70.3354 54.5855 73.9712 46.4672 73.9712 37.5007C73.9712 28.5342 70.3354 20.4145 64.4614 14.5389Z" fill="#639CD9"/>
</g>
<defs>
<filter id="filter0_d_67_6" x="0" y="0" width="83" height="83" filterUnits="userSpaceOnUse" color-interpolation-filters="sRGB">
<feFlood flood-opacity="0" result="BackgroundImageFix"/>
<feColorMatrix in="SourceAlpha" type="matrix" values="0 0 0 0 0 0 0 0 0 0 0 0 0 0 0 0 0 0 127 0" result="hardAlpha"/>
<feOffset dy="4"/>
<feGaussianBlur stdDeviation="2"/>
<feComposite in2="hardAlpha" operator="out"/>
<feColorMatrix type="matrix" values="0 0 0 0 0 0 0 0 0 0 0 0 0 0 0 0 0 0 0.25 0"/>
<feBlend mode="normal" in2="BackgroundImageFix" result="effect1_dropShadow_67_6"/>
<feBlend mode="normal" in="SourceGraphic" in2="effect1_dropShadow_67_6" result="shape"/>
</filter>
</defs>
</svg>
