<svg width="83" height="83" viewBox="0 0 83 83" fill="none" xmlns="http://www.w3.org/2000/svg">
<g filter="url(#filter0_d_60_13)">
<path d="M41.4997 0C51.8553 0 61.23 4.19735 68.0164 10.9838C74.8027 17.7702 79 27.1452 79 37.5003C79 47.8554 74.8027 57.2304 68.0164 64.0168C61.23 70.8026 51.8553 75 41.4997 75C31.1447 75 21.77 70.8026 14.9836 64.0168C8.19729 57.231 4 47.8554 4 37.5003C4 27.1446 8.19729 17.7696 14.9836 10.9838C21.77 4.19735 31.1447 0 41.4997 0ZM47.564 25.7359C48.6235 24.647 48.5985 22.9057 47.5103 21.8467C46.4221 20.7878 44.6802 20.8116 43.6206 21.9005L30.2921 35.6455L32.2635 37.5632L30.2835 35.643C29.2234 36.7368 29.2502 38.4824 30.344 39.5431C30.3757 39.5737 30.4074 39.6036 30.4404 39.6322L43.6206 53.1099C44.6802 54.1988 46.4221 54.2226 47.5103 53.1636C48.5985 52.1053 48.6235 50.3634 47.564 49.2745L36.1025 37.5552L47.564 25.7359ZM64.1157 14.8839C58.3285 9.096 50.3319 5.51631 41.4997 5.51631C32.6675 5.51631 24.6715 9.096 18.8837 14.8839C13.0958 20.6718 9.51622 28.668 9.51622 37.5003C9.51622 46.3326 13.0958 54.3288 18.8843 60.1167C24.6715 65.9046 32.6675 69.4849 41.5003 69.4849C50.3331 69.4849 58.3291 65.9052 64.1163 60.1167C69.9048 54.3294 73.485 46.3326 73.485 37.5003C73.4844 28.668 69.9042 20.6718 64.1157 14.8839Z" fill="#639CD9"/>
</g>
<defs>
<filter id="filter0_d_60_13" x="0" y="0" width="83" height="83" filterUnits="userSpaceOnUse" color-interpolation-filters="sRGB">
<feFlood flood-opacity="0" result="BackgroundImageFix"/>
<feColorMatrix in="SourceAlpha" type="matrix" values="0 0 0 0 0 0 0 0 0 0 0 0 0 0 0 0 0 0 127 0" result="hardAlpha"/>
<feOffset dy="4"/>
<feGaussianBlur stdDeviation="2"/>
<feComposite in2="hardAlpha" operator="out"/>
<feColorMatrix type="matrix" values="0 0 0 0 0 0 0 0 0 0 0 0 0 0 0 0 0 0 0.25 0"/>
<feBlend mode="normal" in2="BackgroundImageFix" result="effect1_dropShadow_60_13"/>
<feBlend mode="normal" in="SourceGraphic" in2="effect1_dropShadow_60_13" result="shape"/>
</filter>
</defs>
</svg>
