<svg width="75" height="75" viewBox="0 0 75 75" fill="none" xmlns="http://www.w3.org/2000/svg">
<path d="M37.4997 0C47.8553 0 57.23 4.19735 64.0164 10.9838C70.8027 17.7702 75 27.1452 75 37.5003C75 47.8554 70.8027 57.2304 64.0164 64.0168C57.23 70.8027 47.8553 75 37.4997 75C27.1447 75 17.77 70.8027 10.9836 64.0168C4.19729 57.231 0 47.8554 0 37.5003C0 27.1446 4.19729 17.7696 10.9836 10.9838C17.77 4.19735 27.1447 0 37.4997 0ZM43.564 25.7359C44.6235 24.647 44.5985 22.9057 43.5103 21.8467C42.4221 20.7878 40.6802 20.8116 39.6206 21.9005L26.2921 35.6455L28.2635 37.5632L26.2835 35.643C25.2234 36.7368 25.2502 38.4824 26.344 39.5431C26.3757 39.5737 26.4074 39.6036 26.4404 39.6322L39.6206 53.1099C40.6802 54.1988 42.4221 54.2226 43.5103 53.1636C44.5985 52.1053 44.6235 50.3634 43.564 49.2745L32.1025 37.5552L43.564 25.7359ZM60.1157 14.8839C54.3285 9.096 46.3319 5.51631 37.4997 5.51631C28.6675 5.51631 20.6715 9.096 14.8837 14.8839C9.09585 20.6718 5.51622 28.668 5.51622 37.5003C5.51622 46.3326 9.09585 54.3288 14.8843 60.1167C20.6715 65.9046 28.6675 69.4849 37.5003 69.4849C46.3331 69.4849 54.3291 65.9052 60.1163 60.1167C65.9048 54.3294 69.485 46.3326 69.485 37.5003C69.4844 28.668 65.9042 20.6718 60.1157 14.8839Z" fill="#639CD9"/>
</svg>
