<svg width="30" height="30" viewBox="0 0 30 30" fill="none" xmlns="http://www.w3.org/2000/svg">
<path d="M12.2042 0H12.2081V0.00175293C15.577 0.00275461 18.6276 1.40435 20.8351 3.66914C23.039 5.93068 24.4043 9.05691 24.4065 12.5097H24.4082V12.518V12.528H24.4065C24.4053 13.9196 24.1826 15.2588 23.7732 16.5076C23.7046 16.7172 23.6328 16.9186 23.5591 17.1109V17.1126C23.206 18.0292 22.7497 18.8956 22.2048 19.6937L29.305 26.2394L29.3093 26.2434L29.3477 26.28L29.3504 26.2827C29.7512 26.6742 29.9695 27.1983 29.9971 27.7302C30.024 28.2561 29.8645 28.794 29.5139 29.2254L29.5113 29.2294L29.4685 29.2803L29.46 29.289L29.4243 29.3291L29.4204 29.3344C29.0383 29.7455 28.5283 29.9689 28.0093 29.997C27.4973 30.0248 26.9724 29.8617 26.5515 29.5016L26.5478 29.4989L26.498 29.4551L26.491 29.449L19.2289 22.7543C19.0141 22.9096 18.7948 23.0571 18.5729 23.1963C18.2719 23.3854 17.9601 23.5634 17.642 23.726C16.0065 24.5629 14.1583 25.0337 12.2045 25.0337V25.0354H12.2006V25.0337C8.83162 25.0327 5.78057 23.6311 3.57303 21.3663C1.36842 19.1047 0.00390629 15.978 0.001709 12.5262H0V12.518V12.5139H0.001709C0.00268557 9.05841 1.36915 5.92893 3.57718 3.66463C5.78204 1.40435 8.82992 0.00400671 12.1962 0.00175293V0H12.2042ZM12.2081 2.8072V2.80895H12.2042H12.1962V2.8072C9.58725 2.80895 7.22248 3.89652 5.51055 5.65171C3.79886 7.4069 2.73757 9.83496 2.73684 12.5142H2.73855V12.5182V12.5265H2.73684C2.73855 15.2024 3.79813 17.6268 5.51006 19.3832C7.22126 21.1391 9.58847 22.2277 12.2003 22.2282V22.2265H12.2042H12.2123V22.2282C14.8212 22.2265 17.185 21.1394 18.8974 19.3837C20.6091 17.6285 21.6704 15.2012 21.6709 12.5222H21.6694V12.5182V12.5099H21.6709C21.6694 9.83396 20.6088 7.4084 18.8979 5.65246C17.1867 3.89652 14.8202 2.80795 12.2081 2.8072Z" fill="#1F2544"/>
</svg>
