<svg width="50" height="50" viewBox="0 0 50 50" fill="none" xmlns="http://www.w3.org/2000/svg">
<path fill-rule="evenodd" clip-rule="evenodd" d="M27.1358 49.8332C35.1641 48.8851 42.2854 44.5962 46.4067 39.1802C46.0778 39.1395 45.7489 39.0622 45.43 38.9523C44.4034 38.5861 43.6658 37.9025 43.312 37.1049C43.013 36.5352 41.9665 35.876 40.9449 35.2291C38.0445 33.3979 35.2339 31.6157 35.8468 27.4855C35.9764 26.6269 36.3252 25.7439 36.8485 24.9382L33.0561 19.2455C32.8368 18.9159 32.6973 18.57 32.6275 18.2201C32.5827 18.1468 32.5378 18.0776 32.5029 18.0044C31.4165 18.4968 30.2454 18.9769 28.9298 19.3147C22.0527 21.0807 17.3682 18.5537 22.7703 12.7552C26.463 8.79186 18.3151 5.20288 11.0941 9.20691C5.1887 12.4744 0.0906436 19.6483 0.000941644 27.5384C-0.123644 38.9564 12.1306 51.6033 27.1358 49.8332ZM48.1559 35.168C46.6011 31.7988 40.2921 31.0623 40.8951 27.0013C41.0545 25.927 41.8519 24.7632 43.013 24.1325C43.4815 23.8802 44.0047 23.7093 44.5678 23.6686C44.817 23.6524 45.0712 23.6524 45.3353 23.6808C48.5994 24.0226 50.0197 26.81 49.9998 29.2271C49.9799 31.457 48.9433 33.6828 48.1559 35.168ZM44.1542 14.2079C41.6077 14.3829 39.3004 14.9281 37.2522 15.8803L34.2621 2.47656C33.9631 1.41451 33.9431 0.633236 35.3983 0.0513497C35.9614 -0.0463097 36.4448 -0.0056183 36.8385 0.181562C37.2272 0.364673 37.5312 0.686135 37.7455 1.15409L44.1542 14.2079ZM45.1459 21.9596C44.1841 21.8823 42.5894 22.1183 41.6774 22.8263L37.7256 16.8976C39.9382 15.8722 42.2256 15.213 44.6476 15.1804C44.827 18.0166 44.6476 19.0868 45.1459 21.9596ZM7.90966 22.5374C9.19539 23.8599 11.5526 24.0837 13.1722 23.0298C14.7918 21.9759 15.0659 20.0552 13.7752 18.7328C12.4894 17.4103 10.1373 17.1865 8.51266 18.2404C6.89304 19.2862 6.62393 21.2109 7.90966 22.5374ZM30.7338 39.5871C32.174 41.0683 34.8202 41.3165 36.6392 40.1405C38.4631 38.9605 38.7671 36.7997 37.3269 35.3145C33.8883 31.7825 27.2952 36.0469 30.7338 39.5871ZM16.7353 43.0133C18.4945 44.8241 21.7188 45.1252 23.9364 43.6888C26.154 42.2524 26.5228 39.6197 24.7637 37.8089C23.0045 35.9981 19.7802 35.697 17.5626 37.1334C15.345 38.5698 14.9762 41.2025 16.7353 43.0133ZM6.70865 33.8659C8.2286 35.4325 11.0243 35.6929 12.9429 34.4518C14.8616 33.2108 15.1855 30.932 13.6606 29.3614C12.1406 27.7947 9.34489 27.5343 7.42627 28.7754C5.50764 30.0206 5.1887 32.2993 6.70865 33.8659Z" fill="#F3F3F3"/>
</svg>
