<svg width="75" height="75" viewBox="0 0 75 75" fill="none" xmlns="http://www.w3.org/2000/svg">
<path d="M51.8372 72.1558C47.4182 73.9868 42.572 75 37.5 75C27.1484 75 17.7673 70.8008 10.9863 64.0137C7.53174 60.5591 4.74854 56.427 2.84424 51.8372C1.01318 47.4182 0 42.572 0 37.5C0 27.1484 4.19922 17.7673 10.9863 10.9863C14.4409 7.53174 18.573 4.74854 23.1628 2.84424C27.5818 1.01318 32.428 0 37.5 0C42.572 0 47.4182 1.01318 51.8372 2.84424C56.4331 4.74854 60.5591 7.53174 64.0137 10.9863C67.4683 14.4409 70.2576 18.5669 72.1558 23.1628C73.9868 27.5818 75 32.428 75 37.5C75 42.572 73.9868 47.4182 72.1558 51.8372C70.2576 56.4331 67.4683 60.5591 64.0137 64.0137C60.5652 67.4683 56.4331 70.2576 51.8372 72.1558ZM44.4824 46.2341C45.9961 47.7722 45.9778 50.2502 44.4336 51.7578C42.8955 53.2715 40.4175 53.2532 38.9099 51.709L27.5146 40.1306C26.0193 38.6047 26.0193 36.1694 27.5146 34.6497L38.6902 23.291C40.2039 21.7529 42.6758 21.7346 44.2139 23.2422C45.752 24.7559 45.7703 27.2278 44.2627 28.7659L35.7788 37.3901L44.4824 46.2341ZM48.8403 64.8987C52.4597 63.3972 55.7251 61.1938 58.4595 58.4595C61.1938 55.7251 63.3972 52.4597 64.8987 48.8403C66.3452 45.3552 67.1387 41.5222 67.1387 37.5C67.1387 33.4778 66.3391 29.6509 64.8987 26.1597C63.3972 22.5403 61.1938 19.2749 58.4595 16.5405C55.7251 13.8062 52.4597 11.6028 48.8403 10.1013C45.3491 8.65479 41.5222 7.86133 37.5 7.86133C33.4778 7.86133 29.6509 8.66089 26.1597 10.1013C22.5403 11.6028 19.2749 13.8062 16.5405 16.5405C13.8062 19.2749 11.6028 22.5342 10.1013 26.1597C8.65479 29.6448 7.86133 33.4778 7.86133 37.5C7.86133 41.5222 8.66089 45.3491 10.1013 48.8403C11.6028 52.4597 13.8062 55.7251 16.5405 58.4595C19.2749 61.1938 22.5403 63.3972 26.1597 64.8987C29.6448 66.3452 33.4778 67.1387 37.5 67.1387C41.5222 67.1387 45.3491 66.3391 48.8403 64.8987Z" fill="#639CD9"/>
</svg>
