<svg width="50" height="50" viewBox="0 0 50 50" fill="none" xmlns="http://www.w3.org/2000/svg">
<path d="M24.9998 0C31.9032 0 38.1532 2.79826 42.6775 7.32259C47.2018 11.8465 50 18.0969 50 25C50 31.9039 47.2018 38.1535 42.6775 42.6774C38.1532 47.2017 31.9032 50 24.9998 50C18.0964 50 11.8464 47.2017 7.32253 42.6774C2.79824 38.1535 0 31.9035 0 24.9996C0 18.0965 2.79824 11.8461 7.32253 7.32218C11.8464 2.79826 18.0964 0 24.9998 0ZM32.6169 15.2055C33.1463 14.6757 34.0053 14.6757 34.5346 15.2055C35.064 15.7349 35.064 16.5934 34.5346 17.1232L26.6567 25.0016L34.5346 32.88C35.064 33.4094 35.064 34.268 34.5346 34.7978C34.0053 35.3271 33.1463 35.3271 32.6169 34.7978L24.7386 26.9194L16.8602 34.7982C16.3308 35.3276 15.4719 35.3276 14.9425 34.7982C14.4131 34.2684 14.4131 33.4098 14.9425 32.8805L22.8213 25.002L14.9425 17.1232C14.4131 16.5934 14.4131 15.7349 14.9425 15.2055C15.4719 14.6757 16.3308 14.6757 16.8602 15.2055L24.739 23.0839L32.6169 15.2055ZM40.7598 9.23991C36.7266 5.20671 31.1545 2.7124 24.9998 2.7124C18.8451 2.7124 13.2734 5.20671 9.24024 9.23991C5.20707 13.2731 2.71238 18.8452 2.71238 24.9996C2.71238 31.1544 5.20707 36.7265 9.23983 40.7597C13.273 44.7925 18.8447 47.2872 24.9994 47.2872C31.1541 47.2872 36.7262 44.7925 40.7594 40.7597C44.7925 36.7265 47.2872 31.1544 47.2872 24.9996C47.2876 18.8452 44.7929 13.2731 40.7598 9.23991Z" fill="white"/>
</svg>
