<svg xmlns="http://www.w3.org/2000/svg" version="1.1" xmlns:xlink="http://www.w3.org/1999/xlink" xmlns:svgjs="http://svgjs.dev/svgjs" width="1440" height="560" preserveAspectRatio="none" viewBox="0 0 1440 560"><g mask="url(&quot;#SvgjsMask1005&quot;)" fill="none"><g transform="translate(0, 0)" stroke-linecap="round"><path d="M260 114.04 L260 445.96" stroke-width="15" stroke="rgba(129, 104, 157, 1)"></path><path d="M280 172.79 L280 387.21" stroke-width="15" stroke="rgba(255, 208, 236, 1)"></path><path d="M300 187.78 L300 372.23" stroke-width="15" stroke="rgba(255, 208, 236, 1)"></path><path d="M320 143.02 L320 416.98" stroke-width="15" stroke="rgba(255, 208, 236, 1)"></path><path d="M340 241.81 L340 318.19" stroke-width="15" stroke="rgba(129, 104, 157, 1)"></path><path d="M360 117.12 L360 442.88" stroke-width="15" stroke="rgba(129, 104, 157, 1)"></path><path d="M380 177.61 L380 382.39" stroke-width="15" stroke="rgba(129, 104, 157, 1)"></path><path d="M400 232.03 L400 327.97" stroke-width="15" stroke="rgba(255, 208, 236, 1)"></path><path d="M420 127.94 L420 432.06" stroke-width="15" stroke="rgba(129, 104, 157, 1)"></path><path d="M440 206.31 L440 353.69" stroke-width="15" stroke="rgba(129, 104, 157, 1)"></path><path d="M460 164.28 L460 395.72" stroke-width="15" stroke="rgba(255, 208, 236, 1)"></path><path d="M480 237.57 L480 322.43" stroke-width="15" stroke="rgba(129, 104, 157, 1)"></path><path d="M500 235.51 L500 324.49" stroke-width="15" stroke="rgba(129, 104, 157, 1)"></path><path d="M520 211.53 L520 348.47" stroke-width="15" stroke="rgba(129, 104, 157, 1)"></path><path d="M540 142.75 L540 417.25" stroke-width="15" stroke="rgba(255, 208, 236, 1)"></path><path d="M560 161.95 L560 398.05" stroke-width="15" stroke="rgba(255, 208, 236, 1)"></path><path d="M580 114.96 L580 445.04" stroke-width="15" stroke="rgba(129, 104, 157, 1)"></path><path d="M600 200.63 L600 359.38" stroke-width="15" stroke="rgba(255, 208, 236, 1)"></path><path d="M620 193.81 L620 366.19" stroke-width="15" stroke="rgba(255, 208, 236, 1)"></path><path d="M640 215.1 L640 344.9" stroke-width="15" stroke="rgba(129, 104, 157, 1)"></path><path d="M660 203.28 L660 356.72" stroke-width="15" stroke="rgba(255, 208, 236, 1)"></path><path d="M680 203.97 L680 356.02" stroke-width="15" stroke="rgba(255, 208, 236, 1)"></path><path d="M700 213.33 L700 346.67" stroke-width="15" stroke="rgba(255, 208, 236, 1)"></path><path d="M720 142.48 L720 417.52" stroke-width="15" stroke="rgba(255, 208, 236, 1)"></path><path d="M740 217.49 L740 342.51" stroke-width="15" stroke="rgba(255, 208, 236, 1)"></path><path d="M760 161.17 L760 398.83" stroke-width="15" stroke="rgba(255, 208, 236, 1)"></path><path d="M780 192.08 L780 367.92" stroke-width="15" stroke="rgba(129, 104, 157, 1)"></path><path d="M800 173.26 L800 386.74" stroke-width="15" stroke="rgba(255, 208, 236, 1)"></path><path d="M820 128.76 L820 431.24" stroke-width="15" stroke="rgba(129, 104, 157, 1)"></path><path d="M840 237.44 L840 322.56" stroke-width="15" stroke="rgba(129, 104, 157, 1)"></path><path d="M860 223.46 L860 336.54" stroke-width="15" stroke="rgba(129, 104, 157, 1)"></path><path d="M880 117.82 L880 442.18" stroke-width="15" stroke="rgba(255, 208, 236, 1)"></path><path d="M900 141.77 L900 418.23" stroke-width="15" stroke="rgba(129, 104, 157, 1)"></path><path d="M920 184.82 L920 375.18" stroke-width="15" stroke="rgba(129, 104, 157, 1)"></path><path d="M940 158.14 L940 401.86" stroke-width="15" stroke="rgba(129, 104, 157, 1)"></path><path d="M960 236.4 L960 323.6" stroke-width="15" stroke="rgba(255, 208, 236, 1)"></path><path d="M980 196.14 L980 363.86" stroke-width="15" stroke="rgba(255, 208, 236, 1)"></path><path d="M1000 105.28 L1000 454.72" stroke-width="15" stroke="rgba(129, 104, 157, 1)"></path><path d="M1020 112.09 L1020 447.91" stroke-width="15" stroke="rgba(129, 104, 157, 1)"></path><path d="M1040 261.33 L1040 298.67" stroke-width="15" stroke="rgba(129, 104, 157, 1)"></path><path d="M1060 231.16 L1060 328.85" stroke-width="15" stroke="rgba(129, 104, 157, 1)"></path><path d="M1080 199.69 L1080 360.31" stroke-width="15" stroke="rgba(255, 208, 236, 1)"></path><path d="M1100 229.71 L1100 330.29" stroke-width="15" stroke="rgba(255, 208, 236, 1)"></path><path d="M1120 191.09 L1120 368.9" stroke-width="15" stroke="rgba(255, 208, 236, 1)"></path><path d="M1140 229.25 L1140 330.75" stroke-width="15" stroke="rgba(129, 104, 157, 1)"></path><path d="M1160 185.92 L1160 374.08" stroke-width="15" stroke="rgba(129, 104, 157, 1)"></path><path d="M1180 109.43 L1180 450.57" stroke-width="15" stroke="rgba(129, 104, 157, 1)"></path></g></g><defs><mask id="SvgjsMask1005"><rect width="1440" height="560" fill="#ffffff"></rect></mask></defs></svg>