<svg width="50" height="50" viewBox="0 0 50 50" fill="none" xmlns="http://www.w3.org/2000/svg">
<path d="M9.49749 38.5532H9.38329C12.1368 41.7254 15.7978 43.9829 19.8754 45.023C23.9529 46.063 28.2521 45.8358 32.1964 44.3718C36.1407 42.9079 39.5416 40.2771 41.943 36.8324C44.3443 33.3877 45.6314 29.2937 45.6316 25.0994C45.6559 24.5384 45.8967 24.0084 46.3036 23.6201C46.7106 23.2317 47.2523 23.0149 47.8158 23.0149C48.3793 23.0149 48.921 23.2317 49.328 23.6201C49.7349 24.0084 49.9757 24.5384 50 25.0994C49.997 30.0454 48.5168 34.8786 45.748 38.9835C42.9792 43.0883 39.0471 46.2792 34.4524 48.1496C29.8577 50.0201 24.8084 50.4855 19.9473 49.4866C15.0863 48.4877 10.6336 46.0697 7.15626 42.5405V47.5603C7.15626 48.1381 6.92592 48.6922 6.51592 49.1008C6.10593 49.5094 5.54985 49.7389 4.97002 49.7389C4.39019 49.7389 3.83412 49.5094 3.42412 49.1008C3.01412 48.6922 2.78378 48.1381 2.78378 47.5603V36.3746C2.78916 35.8003 3.02187 35.2513 3.43128 34.8472C3.8407 34.443 4.39371 34.2162 4.97002 34.2163H6.56483C7.3519 35.7861 8.33747 37.2491 9.49749 38.5694V38.5532ZM24.9969 8.91829C28.1983 8.91668 31.3283 9.86122 33.9909 11.6324C36.6535 13.4037 38.7292 15.922 39.9555 18.8689C41.1817 21.8158 41.5034 25.0589 40.8798 28.188C40.2562 31.3172 38.7154 34.1917 36.4523 36.4481C34.1891 38.7045 31.3053 40.2414 28.1656 40.8643C25.0258 41.4873 21.7712 41.1684 18.8134 39.9479C15.8555 38.7274 13.3273 36.6602 11.5486 34.0078C9.76983 31.3553 8.82041 28.2368 8.82041 25.0466C8.82041 22.9282 9.23917 20.8306 10.0528 18.8736C10.8664 16.9166 12.0589 15.1384 13.5622 13.6407C15.0656 12.143 16.8502 10.9551 18.8143 10.1448C20.7784 9.33453 22.8834 8.91776 25.0092 8.91829H24.9969ZM22.4762 33.9765H27.5543C28.0369 33.9732 28.4985 33.78 28.8385 33.4388C29.1786 33.0977 29.3694 32.6364 29.3694 32.1555V25.8635H32.5957C32.8439 25.8787 33.0919 25.8329 33.3181 25.7301C33.5442 25.6273 33.7416 25.4708 33.8928 25.2742C34.5699 24.2621 33.6481 23.2419 33.0077 22.559C31.1845 20.5715 27.0649 16.9662 26.1676 15.9134C26.0286 15.7383 25.8516 15.5968 25.6499 15.4995C25.4483 15.4022 25.2271 15.3517 25.0031 15.3517C24.779 15.3517 24.5579 15.4022 24.3562 15.4995C24.1545 15.5968 23.9776 15.7383 23.8386 15.9134C22.9127 16.9784 18.5687 20.8031 16.8393 22.7338C16.2398 23.4045 15.5015 24.3231 16.1215 25.2742C16.2715 25.4721 16.4676 25.6307 16.6929 25.7362C16.9181 25.8417 17.1658 25.891 17.4144 25.8798H20.6489V32.1555C20.65 32.6381 20.8429 33.1007 21.1853 33.4419C21.5278 33.7832 21.9919 33.9754 22.4762 33.9765ZM43.4821 2.2727C43.4693 1.97895 43.5164 1.68567 43.6204 1.41053C43.7244 1.13539 43.8833 0.884077 44.0873 0.671731C44.2914 0.459386 44.5365 0.290402 44.8079 0.174958C45.0792 0.0595143 45.3712 0 45.6663 0C45.9613 0 46.2533 0.0595143 46.5247 0.174958C46.796 0.290402 47.0411 0.459386 47.2452 0.671731C47.4493 0.884077 47.6081 1.13539 47.7121 1.41053C47.8162 1.68567 47.8632 1.97895 47.8505 2.2727V13.5438C47.8494 14.1174 47.6214 14.6674 47.2159 15.0745C46.8104 15.4817 46.2602 15.713 45.6846 15.7183H43.3801C42.5733 14.1445 41.5657 12.6813 40.3822 11.3652C39.5748 10.4678 38.6904 9.64224 37.7391 8.89797L37.372 8.60938L37.3312 8.58093L37.2864 8.54841L37.2007 8.48338L37.1191 8.45086L37.0294 8.38583L36.8581 8.26389L36.7643 8.20292C32.799 5.45509 27.9909 4.18291 23.18 4.60861C18.3691 5.03431 13.8612 7.13083 10.4438 10.5319C10.3173 10.6579 10.1909 10.7839 10.0685 10.914L9.92577 11.0644L9.90129 11.0928L9.75854 11.2432C6.28721 15.0282 4.36484 19.9718 4.37044 25.0994C4.38318 25.3931 4.33612 25.6864 4.2321 25.9616C4.12808 26.2367 3.96924 26.488 3.76517 26.7004C3.56109 26.9127 3.31599 27.0817 3.04464 27.1971C2.77328 27.3126 2.48129 27.3721 2.18624 27.3721C1.89119 27.3721 1.59919 27.3126 1.32784 27.1971C1.05648 27.0817 0.811385 26.9127 0.607309 26.7004C0.403232 26.488 0.244399 26.2367 0.140377 25.9616C0.0363557 25.6864 -0.0107017 25.3931 0.00203951 25.0994C0.00436684 20.7616 1.14291 16.4995 3.30509 12.7347C5.46726 8.96984 8.57817 5.83263 12.3302 3.63329C16.0821 1.43396 20.3453 0.248686 24.6979 0.19469C29.0505 0.140695 33.3419 1.21985 37.1477 3.32542C39.5142 4.6381 41.653 6.32208 43.4821 8.31267V2.25237V2.2727Z" fill="#F3F3F3"/>
</svg>
